<?xml version="1.0" encoding="UTF-8"?>
<svg xmlns="http://www.w3.org/2000/svg" xmlns:xlink="http://www.w3.org/1999/xlink" width="193pt" height="193pt" viewBox="0 0 193 193" version="1.1">
<g id="surface1">
<path style=" stroke:none;fill-rule:evenodd;fill:rgb(100%,100%,100%);fill-opacity:1;" d="M 0 0.242188 L 192.757813 0.242188 L 192.757813 193 L 0 193 L 0 0.242188 "/>
<path style=" stroke:none;fill-rule:evenodd;fill:rgb(13.699341%,12.199402%,12.5%);fill-opacity:1;" d="M 10.054688 74.394531 L 10.054688 120.558594 L 30.332031 120.558594 L 30.332031 102.132813 L 51.65625 102.132813 L 51.65625 91.988281 L 30.125 91.988281 L 30.125 84.535156 L 52.691406 84.535156 L 52.691406 74.394531 L 10.054688 74.394531 "/>
<path style=" stroke:none;fill-rule:evenodd;fill:rgb(13.699341%,12.199402%,12.5%);fill-opacity:1;" d="M 57.824219 74.339844 L 57.828125 120.765625 L 77.84375 120.765625 L 77.84375 101.925781 L 87.367188 101.925781 L 87.367188 120.765625 L 106.929688 120.765625 L 106.929688 74.339844 L 87.46875 74.339844 L 87.390625 91.148438 L 77.738281 91.148438 L 77.738281 74.339844 L 57.824219 74.339844 "/>
<path style=" stroke:none;fill-rule:evenodd;fill:rgb(13.699341%,12.199402%,12.5%);fill-opacity:1;" d="M 115.144531 74.339844 L 115.210938 120.765625 L 133.84375 120.765625 L 133.84375 87.535156 L 142.640625 120.765625 L 156.925781 120.765625 L 165.722656 87.539063 L 165.722656 120.765625 L 184.253906 120.765625 L 184.253906 74.339844 L 156.496094 74.339844 L 150.300781 101.925781 L 143.492188 74.339844 L 115.144531 74.339844 "/>
<path style=" stroke:none;fill-rule:evenodd;fill:rgb(83.898926%,21.598816%,29.399109%);fill-opacity:1;" d="M 8.503906 72.53125 L 8.503906 118.695313 L 28.777344 118.695313 L 28.777344 100.269531 L 50.101563 100.269531 L 50.101563 90.128906 L 28.574219 90.128906 L 28.574219 82.675781 L 51.136719 82.675781 L 51.136719 72.53125 L 8.503906 72.53125 "/>
<path style=" stroke:none;fill-rule:evenodd;fill:rgb(83.898926%,21.598816%,29.399109%);fill-opacity:1;" d="M 56.269531 72.476563 L 56.277344 118.902344 L 76.289063 118.902344 L 76.289063 100.0625 L 85.8125 100.0625 L 85.8125 118.902344 L 105.378906 118.902344 L 105.378906 72.476563 L 85.917969 72.476563 L 85.835938 89.285156 L 76.1875 89.285156 L 76.1875 72.476563 L 56.269531 72.476563 "/>
<path style=" stroke:none;fill-rule:evenodd;fill:rgb(83.898926%,21.598816%,29.399109%);fill-opacity:1;" d="M 113.589844 72.476563 L 113.65625 118.902344 L 132.289063 118.902344 L 132.289063 85.671875 L 141.089844 118.902344 L 155.371094 118.902344 L 164.171875 85.675781 L 164.171875 118.902344 L 182.699219 118.902344 L 182.699219 72.476563 L 154.945313 72.476563 L 148.746094 100.0625 L 141.9375 72.476563 L 113.589844 72.476563 "/>
</g>
</svg>
