<?xml version="1.0" encoding="UTF-8"?>
<svg version="1.1" xmlns="http://www.w3.org/2000/svg" width="776" height="226">
<path d="M0 0 C6.35354365 -0.12662639 12.70676289 -0.21427701 19.0612793 -0.2746582 C21.22351236 -0.29982499 23.38566018 -0.33396158 25.54760742 -0.37719727 C28.65304572 -0.43775296 31.75736097 -0.46618787 34.86328125 -0.48828125 C35.83211746 -0.51408768 36.80095367 -0.5398941 37.79914856 -0.56648254 C40.29705483 -0.56752988 42.55786768 -0.52432198 45 0 C48.25139043 3.56502449 48.53717619 7.27919716 49 12 C49.66 12 50.32 12 51 12 C51.19335938 12.59167969 51.38671875 13.18335938 51.5859375 13.79296875 C52.70737587 17.19614558 53.81899438 20.56177587 55.1875 23.875 C56 26 56 26 56 29 C56.66 29 57.32 29 58 29 C58.56267578 30.64935547 58.56267578 30.64935547 59.13671875 32.33203125 C61.72139026 39.82851357 64.38360428 47.15552339 67.78515625 54.328125 C69.15591569 57.34291425 70.3324352 60.40104297 71.5 63.5 C73.01422706 67.51435274 74.61500828 71.4287876 76.4375 75.3125 C78.55815207 79.86056513 80.33740489 84.48003706 82.0625 89.1875 C84.93615743 98.21694809 84.93615743 98.21694809 90 106 C90.44730469 104.97261719 90.89460937 103.94523437 91.35546875 102.88671875 C91.96595266 101.48689491 92.57664459 100.08716177 93.1875 98.6875 C93.50775146 97.95345947 93.82800293 97.21941895 94.15795898 96.46313477 C95.91977393 92.4351837 97.71317086 88.42624912 99.5625 84.4375 C101.4971442 80.22048143 103.23922165 75.94129846 104.9375 71.625 C107.21533194 65.8393504 109.71951792 60.20615563 112.3671875 54.578125 C114.33934568 50.2563621 116.17323733 45.88474779 118 41.5 C120.69057238 35.04389394 123.50768728 28.67631468 126.48828125 22.34765625 C128.6870728 17.47849769 130.67752846 12.52644963 132.64086914 7.55810547 C134.78656071 2.21343929 134.78656071 2.21343929 137 0 C139.04711914 -0.24291992 139.04711914 -0.24291992 141.53515625 -0.23046875 C142.42654297 -0.22853516 143.31792969 -0.22660156 144.23632812 -0.22460938 C145.16896484 -0.21236328 146.10160156 -0.20011719 147.0625 -0.1875 C147.99900391 -0.18685547 148.93550781 -0.18621094 149.90039062 -0.18554688 C156.85980776 -0.14019224 156.85980776 -0.14019224 158 1 C158.1039429 2.65876305 158.13797228 4.32194508 158.14476013 5.98394775 C158.15165863 7.06352249 158.15855713 8.14309723 158.16566467 9.25538635 C158.16827805 10.45018112 158.17089142 11.64497589 158.17358398 12.87597656 C158.180271 14.12630173 158.18695801 15.37662689 158.19384766 16.6648407 C158.2079384 19.39096657 158.22025833 22.11703816 158.22979546 24.8431778 C158.24521916 29.15450591 158.26916944 33.46575996 158.29469299 37.77703857 C158.36596782 50.03897422 158.42563529 62.30095286 158.47680664 74.56298828 C158.50512361 81.33036766 158.54051534 88.09767394 158.58346039 94.86497664 C158.6102214 99.14957282 158.62813398 103.43408624 158.63949764 107.71874952 C158.65077965 111.01470516 158.67489913 114.31054506 158.69702148 117.60644531 C158.6979052 119.38649208 158.6979052 119.38649208 158.69880676 121.20249939 C158.71338425 122.83878044 158.71338425 122.83878044 158.72825623 124.50811768 C158.73460413 125.92619154 158.73460413 125.92619154 158.74108028 127.37291336 C159.02224117 130.22566638 159.81597238 132.40221904 161 135 C163.53718631 134.08379383 165.65354881 133.28458491 167.75 131.5625 C171.12440517 129.21916307 174.93361118 127.65148131 179 127 C181.21875 127.67578125 181.21875 127.67578125 183 129 C183.33 130.32 183.66 131.64 184 133 C180.7 134.65 177.4 136.3 174 138 C174.66 138.33 175.32 138.66 176 139 C176 140.98 176 142.96 176 145 C174.92685547 144.93425781 174.92685547 144.93425781 173.83203125 144.8671875 C162.02597657 144.89773357 155.18980364 151.70338342 147.1875 159.6875 C146.45019653 160.47084717 146.45019653 160.47084717 145.69799805 161.27001953 C144.07222435 162.92641528 142.38981125 164.40269377 140.61328125 165.89453125 C134.42628067 171.26661365 128.75599066 177.17567932 123 183 C109.53193765 196.62794325 109.53193765 196.62794325 103.59814453 201.59008789 C101.88426147 203.10210663 100.40468819 204.7411807 98.875 206.4375 C96 209 96 209 92.75 209.5 C90 209 90 209 88 207 C85.04078654 195.91507747 93.89904337 183.72800314 99 174.4375 C99.66 173.303125 100.32 172.16875 101 171 C100.5153125 171.49628906 100.030625 171.99257812 99.53125 172.50390625 C98.52578125 173.52291016 98.52578125 173.52291016 97.5 174.5625 C96.52546875 175.55443359 96.52546875 175.55443359 95.53125 176.56640625 C93.52894679 178.49146011 91.50322362 180.2950341 89.39453125 182.09765625 C83.04662529 187.60976691 77.26893628 193.72240389 71.39648438 199.73046875 C65.23224317 205.96804242 58.86375494 211.55186971 52 217 C51.67 217.33 51.34 217.66 51 218 C48.66055264 217.71269945 46.3260857 217.38063221 44 217 C43.23046875 214.90234375 43.23046875 214.90234375 43 212 C44.34553261 209.63246734 45.65275346 207.68756246 47.3125 205.5625 C48.24498132 204.31264147 49.17726764 203.06263744 50.109375 201.8125 C50.59083984 201.17828125 51.07230469 200.5440625 51.56835938 199.890625 C59.06138175 189.99533761 65.91382185 179.82144565 72 169 C72.34756348 168.38560059 72.69512695 167.77120117 73.05322266 167.13818359 C76.9938966 160.07040627 80.52299941 153.31895936 80 145 C79.67 144.01 79.34 143.02 79 142 C69.48805507 138.82935169 59.37857384 142.61911754 50.59375 146.5078125 C38.74272703 152.57440759 27.04267684 160.66441228 22.125 173.5 C21.75375 174.655 21.3825 175.81 21 177 C33.5030546 174.82881088 46.51542177 169.16214073 57 162 C57.66 161.01 58.32 160.02 59 159 C62.0625 158.75 62.0625 158.75 65 159 C66 160 66 160 66.28515625 162.3203125 C65.82081442 166.68385349 63.20711221 168.23183276 59.96484375 170.94140625 C54.37674046 174.82141999 48.26819308 177.4133439 42 180 C41.14921875 180.36351562 40.2984375 180.72703125 39.421875 181.1015625 C33.75926289 183.28105709 28.0233201 183.73038685 22 183 C21.44973845 182.66919422 20.8994769 182.33838844 20.33254075 181.99755824 C16.99833035 180.57161571 13.76371382 180.72071293 10.19887924 180.73828697 C9.00671785 180.73229288 9.00671785 180.73229288 7.79047239 180.72617769 C5.11088341 180.71515512 2.43149927 180.71841149 -0.24810791 180.7215271 C-2.18196909 180.71652698 -4.11582817 180.71065202 -6.04968429 180.70397437 C-11.37659406 180.68812602 -16.70345117 180.68474103 -22.03038168 180.68332577 C-27.769985 180.67964014 -33.50955914 180.66448889 -39.24914551 180.65071106 C-49.19763129 180.62840803 -59.14610673 180.61341306 -69.09461212 180.60334396 C-83.47858122 180.58877513 -97.86251431 180.56324338 -112.24646232 180.53501268 C-135.58194192 180.48951199 -158.91742667 180.45289367 -182.25292969 180.421875 C-204.92481394 180.39171733 -227.59668557 180.35738172 -250.26855469 180.31738281 C-250.96724675 180.31615181 -251.66593881 180.31492081 -252.38580336 180.3136525 C-259.40227618 180.30128578 -266.41874885 180.28883404 -273.43522142 180.27632002 C-287.72892849 180.25082883 -302.02263654 180.22590511 -316.31634521 180.20132446 C-317.62915229 180.19906643 -318.94195937 180.19680839 -320.29454848 180.19448192 C-363.52968458 180.12036617 -406.76484139 180.05931677 -450 180 C-450 176.37 -450 172.74 -450 169 C-296.55 169 -143.1 169 15 169 C15.33 167.68 15.66 166.36 16 165 C20.54151818 157.51985242 27.04870223 151.21347333 34 146 C17.17 145.505 17.17 145.505 0 145 C0 143.02 0 141.04 0 139 C0.90363281 138.90203125 1.80726563 138.8040625 2.73828125 138.703125 C4.50751953 138.47882813 4.50751953 138.47882813 6.3125 138.25 C8.07013672 138.04117188 8.07013672 138.04117188 9.86328125 137.828125 C13.04814738 137.27320392 13.04814738 137.27320392 14.85546875 135.109375 C16.66067818 131.78236786 17.12686822 129.14826187 17.14044189 125.42765808 C17.14615204 124.48981979 17.15186218 123.55198151 17.15774536 122.58572388 C17.15886322 121.55865326 17.15998108 120.53158264 17.16113281 119.47338867 C17.16609772 118.39018845 17.17106262 117.30698822 17.17617798 116.19096375 C17.19080833 112.599959 17.19760308 109.00899843 17.203125 105.41796875 C17.20887572 102.92556252 17.21463346 100.43315632 17.22039795 97.94075012 C17.22956629 93.37973736 17.23586559 88.81873729 17.2388947 84.25771636 C17.24292807 78.21820968 17.25520358 72.17885847 17.28125 66.1394043 C17.30877052 59.65852153 17.32164204 53.17777225 17.32357025 46.69683266 C17.32659838 44.22608645 17.33463226 41.75534113 17.34775543 39.28462791 C17.36480533 35.82785962 17.36293796 32.37158818 17.35644531 28.91479492 C17.3656601 27.893797 17.37487488 26.87279907 17.3843689 25.82086182 C17.35278131 20.4535707 17.03857519 16.62939118 14 12 C11.19630883 9.3317813 8.44939217 8.33470047 4.75 7.3125 C3.85796875 7.06113281 2.9659375 6.80976563 2.046875 6.55078125 C1.03367187 6.27814453 1.03367187 6.27814453 0 6 C0 4.02 0 2.04 0 0 Z M33 29 C32.61815509 46.66585207 32.28138526 64.33225219 32 82 C31.98348389 83.02256897 31.96696777 84.04513794 31.94995117 85.09869385 C31.86655449 90.42437505 31.80137505 95.74962871 31.76782227 101.0758667 C31.75612462 102.62592491 31.73920671 104.17595431 31.71655273 105.72589111 C31.58341643 115.24959257 31.69483194 124.93996117 35 134 C35.99 134.33 36.98 134.66 38 135 C38 135.66 38 136.32 38 137 C44.43210705 139.66697122 49.10069085 138.65076119 55.5 136.5 C62.18007709 134.38016129 69.04596712 134.26888927 76 134 C73.79078296 127.0577678 71.15733048 120.39157552 68.3125 113.6875 C64.70335912 105.11521106 61.16652978 96.52161709 57.77661133 87.86010742 C56.14650785 83.73006474 54.41196752 79.67626409 52.55078125 75.64453125 C49.5339737 69.07651678 46.97221041 62.35479829 44.39453125 55.60546875 C42.14491897 49.77226358 39.72335663 44.06976669 37.0637207 38.41088867 C35.69990823 35.31985169 34.80117438 32.27753156 34 29 C33.67 29 33.34 29 33 29 Z M135 31 C134.69707031 31.81082031 134.39414062 32.62164062 134.08203125 33.45703125 C131.69467066 39.76700894 129.16046973 45.93861369 126.31640625 52.0546875 C124.77734537 55.49816495 123.38147754 58.99134602 122 62.5 C119.89982564 67.83398834 117.63212196 73.05637195 115.21484375 78.25390625 C113.85901588 81.31868758 112.67545241 84.42429838 111.5 87.5625 C110.06960905 91.35325745 108.57427118 94.97826578 106.6875 98.5625 C104.01606117 103.71700698 101.85548302 109.05733725 99.6875 114.4375 C99.32551514 115.32703369 98.96353027 116.21656738 98.59057617 117.13305664 C98.25517822 117.97473389 97.91978027 118.81641113 97.57421875 119.68359375 C97.27088623 120.44212646 96.96755371 121.20065918 96.6550293 121.98217773 C95.84561961 124.12199015 95.84561961 124.12199015 96 127 C95.34 127 94.68 127 94 127 C93.28477988 128.90725366 92.57137127 130.81520655 91.8671875 132.7265625 C91.32358824 134.15167407 90.74970328 135.56598628 90.1328125 136.9609375 C88.1687127 141.54383704 87.75703863 145.23983383 88.08984375 150.21484375 C87.84815319 157.70725122 85.3082794 164.12145468 82 170.75 C81.29044587 172.20252928 80.58207996 173.65563971 79.875 175.109375 C79.54757812 175.77904297 79.22015625 176.44871094 78.8828125 177.13867188 C77.81638296 179.38713947 76.87967256 181.67253303 76 184 C77.1964541 183.17957433 78.3815431 182.34258026 79.5625 181.5 C80.22378906 181.0359375 80.88507812 180.571875 81.56640625 180.09375 C84.33025342 177.71586544 86.56264641 175.09517513 88.93237305 172.33203125 C92.9661488 167.78242375 97.31801235 163.53889106 101.625 159.25 C102.553125 158.31800781 103.48125 157.38601562 104.4375 156.42578125 C105.33726562 155.52730469 106.23703125 154.62882812 107.1640625 153.703125 C108.37763428 152.49124512 108.37763428 152.49124512 109.61572266 151.25488281 C112 149 112 149 114.75146484 146.87792969 C117.22846651 145.16189961 117.22846651 145.16189961 117.8125 142.25 C117.874375 141.5075 117.93625 140.765 118 140 C118.73605469 139.90203125 119.47210937 139.8040625 120.23046875 139.703125 C128.01228847 138.67600483 128.01228847 138.67600483 134 134 C135.86852279 128.01306155 136.2792608 122.61227552 136.22705078 116.37109375 C136.22734283 115.44333633 136.22763489 114.51557892 136.22793579 113.55970764 C136.22655183 110.51887381 136.21103481 107.47829058 136.1953125 104.4375 C136.19157905 102.31901178 136.18873365 100.20052182 136.18673706 98.08203125 C136.17912677 92.52540256 136.15950072 86.9688796 136.1373291 81.41229248 C136.11681447 75.73451162 136.10772335 70.05671355 136.09765625 64.37890625 C136.0762523 53.2525579 136.04214793 42.12628776 136 31 C135.67 31 135.34 31 135 31 Z M122 145 C122.33 147.31 122.66 149.62 123 152 C121.95532227 154.95922852 121.95532227 154.95922852 120.31640625 157.87890625 C119.72158447 158.95914063 119.1267627 160.039375 118.51391602 161.15234375 C117.86994873 162.27769531 117.22598145 163.40304688 116.5625 164.5625 C115.91360115 165.72823195 115.26638782 166.89490371 114.62084961 168.0625 C111.87993251 172.98569799 109.08224108 177.87494132 106.25 182.74609375 C105.87157959 183.39827881 105.49315918 184.05046387 105.10327148 184.72241211 C104.13569752 186.37498214 103.14869213 188.01613297 102.16015625 189.65625 C101.77730469 190.4296875 101.39445313 191.203125 101 192 C101.33 192.66 101.66 193.32 102 194 C102.55488098 193.44511902 103.10976196 192.89023804 103.68145752 192.31854248 C119.45430501 176.54569499 135.22715251 160.77284749 151 145 C141.43 145 131.86 145 122 145 Z " fill="#000000" transform="translate(450,2)"/>
<path d="M0 0 C6.19292699 -0.14831992 12.38482069 -0.2572042 18.57910156 -0.32958984 C20.68605557 -0.35976335 22.79288396 -0.4007083 24.89941406 -0.45263672 C27.92804934 -0.52542673 30.9550247 -0.55945024 33.984375 -0.5859375 C35.39707672 -0.63238907 35.39707672 -0.63238907 36.83831787 -0.67977905 C39.36310183 -0.68107837 41.55223257 -0.62022488 44 0 C46.53051758 2.80541992 46.53051758 2.80541992 48 6 C48.45814087 6.97779419 48.45814087 6.97779419 48.92553711 7.9753418 C49.1241333 8.54422119 49.32272949 9.11310059 49.52734375 9.69921875 C49.76259766 10.35212891 49.99785156 11.00503906 50.24023438 11.67773438 C50.47033203 12.34095703 50.70042969 13.00417969 50.9375 13.6875 C52.56870719 18.33016663 54.34497392 22.83114235 56.41015625 27.30078125 C59.44848054 33.88467115 62.01947833 40.62343973 64.60546875 47.39453125 C66.44449691 52.163099 68.35683699 56.85924053 70.5 61.5 C73.50912244 68.01588955 76.0458686 74.69253933 78.60546875 81.39453125 C80.85992925 87.24030777 83.28547813 92.96019225 85.9362793 98.63793945 C87.16559034 101.36770405 88.14703117 104.13092304 89 107 C89.81436868 105.23002526 90.6264294 103.45898848 91.4375 101.6875 C91.88996094 100.70136719 92.34242187 99.71523437 92.80859375 98.69921875 C94.05731992 95.98434301 94.05731992 95.98434301 95 93 C95.66 93 96.32 93 97 93 C97.13728516 91.78957031 97.13728516 91.78957031 97.27734375 90.5546875 C98.17583146 86.13509929 99.79359908 82.25827343 101.5625 78.125 C101.89185547 77.34125 102.22121094 76.5575 102.56054688 75.75 C103.36796786 73.83091244 104.18319769 71.9151135 105 70 C105.66 70 106.32 70 107 70 C107.09796875 69.16855469 107.1959375 68.33710937 107.296875 67.48046875 C108.10412961 63.48455841 109.56738122 59.99707637 111.25 56.3125 C111.56573975 55.60552979 111.88147949 54.89855957 112.20678711 54.17016602 C113.96371329 50.24620059 115.76269934 46.34195355 117.5625 42.4375 C119.52675064 38.16122976 121.28183478 33.81694488 123 29.4375 C125.03047988 24.26382432 127.27189844 19.28493291 129.83984375 14.35546875 C131.49233169 11.00041748 132.80282388 7.53453322 134.10546875 4.03125 C135 2 135 2 137 0 C139.06298828 -0.22705078 139.06298828 -0.22705078 141.5703125 -0.1953125 C142.46621094 -0.18886719 143.36210937 -0.18242187 144.28515625 -0.17578125 C145.22230469 -0.15902344 146.15945312 -0.14226563 147.125 -0.125 C148.06988281 -0.11597656 149.01476562 -0.10695312 149.98828125 -0.09765625 C152.32577292 -0.07404522 154.66276123 -0.04111516 157 0 C157.00238835 0.65322518 157.00477671 1.30645037 157.00723743 1.97947025 C157.06642296 17.88799405 157.14199565 33.79634337 157.23571491 49.70469761 C157.28064377 57.39792573 157.32006509 65.09110786 157.34643555 72.78442383 C157.36943926 79.49142386 157.40286368 86.198278 157.44870156 92.90516227 C157.47260196 96.45506722 157.4913515 100.00482796 157.49761391 103.55481148 C157.50480749 107.52180919 157.53527026 111.48844613 157.56762695 115.45532227 C157.56619186 116.62704987 157.56475677 117.79877747 157.5632782 119.00601196 C157.64349466 125.95807306 157.83055567 131.83055567 163 137 C165.00596892 137.43045336 167.03119661 137.77438903 169.0625 138.0625 C174.90277778 138.90277778 174.90277778 138.90277778 176 140 C176 141.65 176 143.3 176 145 C156.53 145 137.06 145 117 145 C117 140 117 140 118 139 C119.74807167 138.75656049 121.4985442 138.53026122 123.25 138.3125 C127.06219087 137.64907977 129.54916274 137.15961992 132.125 134.1875 C135.38431139 128.64667064 135.14052649 123.33437771 135.11352539 117.07885742 C135.11374443 115.74639984 135.11374443 115.74639984 135.1139679 114.38702393 C135.11327293 111.45981376 135.1055 108.53266775 135.09765625 105.60546875 C135.09579059 103.57237279 135.09436739 101.53927638 135.09336853 99.50617981 C135.08955499 94.16161859 135.07973462 88.81708464 135.06866455 83.47253418 C135.05842543 78.01619842 135.05386555 72.55985823 135.04882812 67.10351562 C135.03811132 56.40233178 135.02104885 45.70116816 135 35 C134.0473985 36.86937381 133.09901602 38.74089783 132.15234375 40.61328125 C131.62374756 41.65524658 131.09515137 42.69721191 130.55053711 43.77075195 C128.56185077 47.9125177 126.95074091 52.14845781 125.34375 56.44921875 C121.93947576 65.44481551 118.2888529 74.36160726 114.1875 83.0625 C109.88126383 92.23061572 106.11051023 101.63247418 102.24316406 110.99169922 C100.94875893 114.12399696 99.65398013 117.2561206 98.35546875 120.38671875 C97.96641357 121.32604248 97.5773584 122.26536621 97.17651367 123.2331543 C95.95893735 126.09656838 94.67890213 128.92496412 93.375 131.75 C91.37071228 136.10632253 89.61797046 140.48671399 88 145 C85.36 145 82.72 145 80 145 C79.78384033 144.45174561 79.56768066 143.90349121 79.3449707 143.33862305 C78.33704778 140.78709226 77.32478778 138.23730207 76.3125 135.6875 C75.97283203 134.82576172 75.63316406 133.96402344 75.28320312 133.07617188 C73.46767109 128.5118904 71.57141045 124.0106557 69.51171875 119.55078125 C66.50572563 113.01533459 63.96003348 106.32291453 61.39453125 99.60546875 C59.55550309 94.836901 57.64316301 90.14075947 55.5 85.5 C52.49087756 78.98411045 49.9541314 72.30746067 47.39453125 65.60546875 C45.24664591 60.03603975 42.93058119 54.59937066 40.41809082 49.1854248 C38.79501455 45.5395459 37.3075157 41.85229284 35.83789062 38.14257812 C35.56342102 37.45294983 35.28895142 36.76332153 35.00616455 36.05279541 C34.33622597 34.36901401 33.66794154 32.68457461 33 31 C32.93020799 42.50998406 32.87704124 54.01991701 32.84456348 65.5300703 C32.82896861 70.8758363 32.80784427 76.22145653 32.77368164 81.56713867 C32.74086651 86.73484525 32.72310063 91.90241242 32.71536827 97.07021523 C32.70986427 99.03279117 32.69911735 100.99536029 32.68280983 102.95787621 C32.22999358 118.79335668 32.22999358 118.79335668 36 134 C39.07518909 136.84804017 41.56903105 137.52015142 45.6875 138.125 C50.91419657 138.91419657 50.91419657 138.91419657 52 140 C52 141.65 52 143.3 52 145 C34.84 145 17.68 145 0 145 C0 143.02 0 141.04 0 139 C0.83144531 138.89042969 1.66289063 138.78085938 2.51953125 138.66796875 C3.60621094 138.50941406 4.69289063 138.35085937 5.8125 138.1875 C6.89144531 138.03667969 7.97039063 137.88585937 9.08203125 137.73046875 C12.14970951 136.96252252 13.15576848 136.4958212 15 134 C16.75816932 130.99392318 17.25185458 128.82261121 17.26069641 125.35209656 C17.27132362 123.9580661 17.27132362 123.9580661 17.28216553 122.53587341 C17.27968811 121.52331985 17.27721069 120.5107663 17.2746582 119.4675293 C17.27976913 118.39554291 17.28488007 117.32355652 17.29014587 116.21908569 C17.3040604 112.67074011 17.30308343 109.1225884 17.30078125 105.57421875 C17.30466764 103.10805692 17.3090022 100.64189576 17.31376648 98.17573547 C17.32123306 93.00328402 17.32093457 87.83090081 17.31567383 82.65844727 C17.30988395 76.03401592 17.32679672 69.4098646 17.3500185 62.78547955 C17.36476122 57.69049957 17.36562669 52.5955869 17.36250877 47.50058937 C17.36302189 45.05858621 17.36825772 42.61657927 17.37832069 40.17459679 C17.39067542 36.75643188 17.38389823 33.33881069 17.37231445 29.9206543 C17.37995819 28.91417343 17.38760193 27.90769257 17.39547729 26.87071228 C17.34774317 20.48866276 16.92808474 14.88502467 12.140625 10.16796875 C9.7163259 8.84522161 7.41102761 8.04778395 4.75 7.3125 C3.85796875 7.06113281 2.9659375 6.80976563 2.046875 6.55078125 C1.37140625 6.36902344 0.6959375 6.18726563 0 6 C0 4.02 0 2.04 0 0 Z " fill="#000000" transform="translate(4,2)"/>
<path d="M0 0 C2.64 0 5.28 0 8 0 C8.21615967 0.54825439 8.43231934 1.09650879 8.6550293 1.66137695 C13.98134733 15.16381511 13.98134733 15.16381511 19.85546875 28.43359375 C21.61422943 32.37729944 23.1013618 36.41798202 24.59375 40.46875 C25.77273817 43.42932029 27.03974166 46.29616007 28.375 49.1875 C31.41524485 55.81298173 34.00566889 62.58728143 36.60546875 69.39453125 C38.44449691 74.163099 40.35683699 78.85924053 42.5 83.5 C45.50912244 90.01588955 48.0458686 96.69253933 50.60546875 103.39453125 C53.17099884 110.04690576 55.9910133 116.53696949 59 123 C59.42506836 123.93134766 59.85013672 124.86269531 60.28808594 125.82226562 C62.66311071 130.96781633 65.09403184 135.88198468 70 139 C72.9705684 140.00317556 75.89377906 140.59964263 79 141 C79 142.98 79 144.96 79 147 C58.21 147 37.42 147 16 147 C16 142 16 142 17 141 C19.52195967 140.60056824 22.02963656 140.24920152 24.5625 139.9375 C25.62887695 139.80118164 25.62887695 139.80118164 26.71679688 139.66210938 C28.47738403 139.43760497 30.23863478 139.21831603 32 139 C32 138.34 32 137.68 32 137 C32.66 137 33.32 137 34 137 C34.49187279 128.28292105 33.8472208 121.8398692 30 114 C29.34866402 112.56498488 28.70278202 111.12748121 28.0625 109.6875 C27.73894531 108.96691406 27.41539062 108.24632813 27.08203125 107.50390625 C21 93.42960289 21 93.42960289 21 89 C20.34 89 19.68 89 19 89 C18.80664062 88.40832031 18.61328125 87.81664063 18.4140625 87.20703125 C17.29262413 83.80385442 16.18100562 80.43822413 14.8125 77.125 C14 75 14 75 14 72 C13.34 72 12.68 72 12 72 C11.80664062 71.40832031 11.61328125 70.81664063 11.4140625 70.20703125 C10.29262413 66.80385442 9.18100562 63.43822413 7.8125 60.125 C7 58 7 58 7 55 C6.34 55 5.68 55 5 55 C4.80664062 54.40832031 4.61328125 53.81664062 4.4140625 53.20703125 C3.29262413 49.80385442 2.18100562 46.43822413 0.8125 43.125 C0 41 0 41 0 38 C-0.99 38 -1.98 38 -3 38 C-3.0928125 39.1446875 -3.0928125 39.1446875 -3.1875 40.3125 C-4.11780603 44.53465813 -5.74966385 48.00347946 -7.58984375 51.8984375 C-9.98370262 57.16360078 -11.97651584 62.5839509 -14 68 C-14.66 68 -15.32 68 -16 68 C-16.226875 69.258125 -16.45375 70.51625 -16.6875 71.8125 C-17.73390916 76.49227432 -19.46788198 80.54729257 -21.51953125 84.8671875 C-23.52634134 89.11378827 -25.39106702 93.41774242 -27.2590332 97.72680664 C-28.79645292 101.26726463 -30.35656851 104.79364929 -31.96875 108.30078125 C-32.2879541 109.00436768 -32.6071582 109.7079541 -32.93603516 110.43286133 C-33.5416343 111.76609273 -34.15531832 113.09569536 -34.77880859 114.4206543 C-37.41658722 120.27461788 -38.75458979 125.48470071 -36.875 131.75 C-34.37744588 136.07909381 -32.37977268 138.36125733 -27.453125 139.68359375 C-24.97432933 140.1912567 -22.50280832 140.63065353 -20 141 C-20 142.98 -20 144.96 -20 147 C-37.16 147 -54.32 147 -72 147 C-72 145.02 -72 143.04 -72 141 C-67.05 140.01 -67.05 140.01 -62 139 C-62 138.34 -62 137.68 -62 137 C-60.948125 136.01 -60.948125 136.01 -59.875 135 C-53.11698821 128.46266767 -49.57068517 119.18796292 -46.125 110.625 C-45.69864258 109.58496826 -45.27228516 108.54493652 -44.83300781 107.47338867 C-41.75851794 99.9516641 -38.76044855 92.39920129 -35.77368164 84.84228516 C-33.43334509 78.96285906 -30.88140799 73.23125361 -28.12890625 67.53125 C-27.15083015 65.33819356 -26.48098985 63.34413445 -26 61 C-25.34 61 -24.68 61 -24 61 C-23.9071875 59.8553125 -23.9071875 59.8553125 -23.8125 58.6875 C-23.08622094 55.39131043 -22.16092849 53.00925412 -20.73046875 49.98828125 C-18.07378505 44.24472979 -15.75708842 38.40990289 -13.5 32.5 C-10.89490463 25.67888455 -8.15340626 18.97985358 -5.0637207 12.36206055 C-3.83440966 9.63229595 -2.85296883 6.86907696 -2 4 C-1.34 4 -0.68 4 0 4 C0 2.68 0 1.36 0 0 Z " fill="#000000" transform="translate(353,0)"/>
<path d="M0 0 C1.625 1.875 1.625 1.875 2.1875 4.5625 C1.40440948 9.17403308 -0.62343226 12.1522907 -3.375 15.875 C-3.84808594 16.52597656 -4.32117188 17.17695313 -4.80859375 17.84765625 C-12.22062186 27.14503815 -24.64211914 36.02977256 -36.5625 37.625 C-39.52493369 38.13089252 -40.95198526 38.4490879 -43.0859375 40.59765625 C-45.38731584 44.15614588 -46.97461755 47.60425392 -47.375 51.875 C-33.46505686 49.82271331 -22.03660309 39.51028001 -11.72460938 30.42016602 C-7.66162292 26.8563072 -7.66162292 26.8563072 -4.5 27.0625 C-3.79875 27.330625 -3.0975 27.59875 -2.375 27.875 C-1.6328125 29.6171875 -1.6328125 29.6171875 -1.375 31.875 C-2.9921875 33.9453125 -2.9921875 33.9453125 -5.25 36 C-8.22192355 38.6286283 -8.22192355 38.6286283 -10.375 41.875 C-5.55600824 40.5391841 -2.2506006 38.55901492 1.6875 35.5 C2.68910156 34.72914063 3.69070313 33.95828125 4.72265625 33.1640625 C6.61803803 31.66918535 8.48710573 30.14015155 10.32421875 28.57421875 C12.625 26.875 12.625 26.875 15.375 27.0625 C17.625 27.875 17.625 27.875 18.625 28.875 C18.5390625 30.8359375 18.5390625 30.8359375 18.25 33.25 C18.15976562 34.04148438 18.06953125 34.83296875 17.9765625 35.6484375 C17.625 37.875 17.625 37.875 16.625 40.875 C17.43324219 40.43027344 18.24148438 39.98554688 19.07421875 39.52734375 C20.14285156 38.96144531 21.21148438 38.39554688 22.3125 37.8125 C23.36824219 37.24402344 24.42398438 36.67554688 25.51171875 36.08984375 C28.84887221 34.78764209 30.27535056 34.78745148 33.625 35.875 C33.5390625 38.1484375 33.5390625 38.1484375 32.625 40.875 C30.37967392 42.34981203 28.42421729 43.42478248 26 44.5 C25.39542969 44.78617188 24.79085937 45.07234375 24.16796875 45.3671875 C21.11273116 46.80034799 18.08130221 48.07759896 14.9140625 49.2578125 C11.18225519 51.09269163 9.86429674 52.66953347 7.625 56.125 C-0.66581765 68.17284209 -12.21327185 77.15908041 -26.75390625 80.40625 C-31.82195277 81.16088298 -35.584504 80.671436 -40.375 78.875 C-41.375 77.875 -41.375 77.875 -41.875 74.75 C-41.27799766 70.12323183 -40.3036792 68.77277175 -36.90625 65.74609375 C-26.5387741 58.08248117 -14.67383113 53.05956312 -2.83007812 48.14916992 C-1.87681641 47.75060791 -0.92355469 47.3520459 0.05859375 46.94140625 C0.91509521 46.59021729 1.77159668 46.23902832 2.65405273 45.87719727 C4.79239138 45.03569583 4.79239138 45.03569583 5.625 42.875 C4.82835937 43.29652344 4.03171875 43.71804687 3.2109375 44.15234375 C2.15132812 44.70019531 1.09171875 45.24804688 0 45.8125 C-1.04414062 46.35777344 -2.08828125 46.90304688 -3.1640625 47.46484375 C-6.33909996 48.85923368 -8.92664821 49.59409494 -12.375 49.875 C-15.25 48.5625 -15.25 48.5625 -17.375 46.875 C-17.375 46.215 -17.375 45.555 -17.375 44.875 C-18.18582031 45.47828125 -18.99664063 46.0815625 -19.83203125 46.703125 C-36.02746437 58.50086188 -36.02746437 58.50086188 -45.75 57.9375 C-49.95232111 56.70578519 -51.68919297 55.29329985 -54.375 51.875 C-54.705 50.885 -55.035 49.895 -55.375 48.875 C-55.90609375 49.15214844 -56.4371875 49.42929688 -56.984375 49.71484375 C-58.04398438 50.25818359 -58.04398438 50.25818359 -59.125 50.8125 C-60.16914062 51.35197266 -60.16914062 51.35197266 -61.234375 51.90234375 C-65.76437118 53.96068143 -70.43146468 54.56766426 -75.375 53.875 C-78.8125 52.125 -78.8125 52.125 -81.375 49.875 C-82.03515625 47.734375 -82.03515625 47.734375 -82.375 45.875 C-87.91101728 50.47636502 -92.77363498 55.33898272 -97.375 60.875 C-99.025 60.545 -100.675 60.215 -102.375 59.875 C-103.30923645 56.86468256 -103.41949911 56.00849732 -102.375 52.875 C-102.90867187 53.0915625 -103.44234375 53.308125 -103.9921875 53.53125 C-110.81409572 56.08061362 -117.50434673 57.45485848 -124.4375 54.625 C-126.61821932 52.65531803 -126.81494878 51.66948237 -127.375 48.875 C-128.19484375 49.29652344 -129.0146875 49.71804687 -129.859375 50.15234375 C-130.93703125 50.70019531 -132.0146875 51.24804688 -133.125 51.8125 C-134.19234375 52.35777344 -135.2596875 52.90304688 -136.359375 53.46484375 C-141.98575 56.09582999 -147.21001416 56.43454491 -153.375 55.875 C-156.36956414 54.62726494 -157.77220624 53.64219206 -159.75 51.125 C-160.98998727 46.66104582 -159.84465568 42.97086325 -158.0625 38.8125 C-153.25934961 33.56254492 -146.10597 29.63057737 -138.875 29.25 C-135.375 29.875 -135.375 29.875 -132.8125 31.5 C-131.375 33.875 -131.375 33.875 -131.125 36.8125 C-132.68511467 40.63478094 -134.29788596 41.89777399 -137.83203125 43.90625 C-142.52415817 45.69372692 -147.39750227 45.78374587 -152.375 45.875 C-152.705 46.865 -153.035 47.855 -153.375 48.875 C-147.93823197 50.68725601 -142.54047667 47.89954293 -137.375 45.875 C-131.92426705 42.95572 -127.01122099 39.39517435 -122.125 35.625 C-116.10080564 31.04563275 -110.88600763 29.13621236 -103.375 29.875 C-100.875 31.375 -100.875 31.375 -99.375 32.875 C-99.375 36.24477776 -99.42966557 38.85196685 -101.80078125 41.41796875 C-107.53764424 45.46821777 -113.51579733 45.74924795 -120.375 45.875 C-120.705 47.195 -121.035 48.515 -121.375 49.875 C-110.03072426 48.57978742 -100.69846639 44.2170926 -91.8984375 36.9765625 C-90.375 35.875 -90.375 35.875 -88.375 35.875 C-88.04822266 34.82699219 -88.04822266 34.82699219 -87.71484375 33.7578125 C-86.04122238 30.1568429 -83.65319445 27.5822094 -80.9375 24.75 C-80.40616455 24.18958008 -79.8748291 23.62916016 -79.32739258 23.05175781 C-78.22522799 21.89357864 -77.11964583 20.73864254 -76.01074219 19.58691406 C-74.44605267 17.94936139 -72.91243616 16.28744278 -71.3828125 14.6171875 C-70.44379188 13.61877147 -69.50373556 12.62132822 -68.5625 11.625 C-67.73105469 10.73296875 -66.89960937 9.8409375 -66.04296875 8.921875 C-62.80101184 6.43463427 -60.40246587 6.13259929 -56.375 5.875 C-55.6875 8.1328125 -55.6875 8.1328125 -55.375 10.875 C-56.5625 12.8671875 -56.5625 12.8671875 -58.375 14.75 C-59.01566406 15.42804688 -59.65632812 16.10609375 -60.31640625 16.8046875 C-60.99574219 17.48789063 -61.67507813 18.17109375 -62.375 18.875 C-63.04402344 19.55820313 -63.71304688 20.24140625 -64.40234375 20.9453125 C-66.04496464 22.60472911 -67.70126838 24.24705435 -69.375 25.875 C-68.45267578 25.82279297 -68.45267578 25.82279297 -67.51171875 25.76953125 C-66.70347656 25.74246094 -65.89523437 25.71539062 -65.0625 25.6875 C-63.86173828 25.63529297 -63.86173828 25.63529297 -62.63671875 25.58203125 C-60.375 25.875 -60.375 25.875 -58.6171875 27.21875 C-57.375 28.875 -57.375 28.875 -56.8125 31.5625 C-57.78129844 37.26764636 -61.35435465 41.26884601 -65.8125 44.8125 C-68.98016308 46.12592128 -71.97398789 46.54156744 -75.375 46.875 C-64.77565659 46.28614759 -56.04974973 41.03428146 -48.375 33.875 C-45.87757028 30.98862631 -43.6305147 27.95169724 -41.375 24.875 C-33.39306422 14.75054461 -14.18503988 -6.71922941 0 0 Z M-6.375 4.875 C-17.97794022 11.56724702 -27.0599718 20.34826661 -36.375 29.875 C-33.35316715 31.27071359 -33.35316715 31.27071359 -30.5546875 29.50390625 C-20.5386352 23.24091374 -12.09001637 16.77635747 -5.375 6.875 C-5.705 6.215 -6.035 5.555 -6.375 4.875 Z M-66.375 32.875 C-71.325 35.845 -71.325 35.845 -76.375 38.875 C-72.63510048 40.27871581 -72.63510048 40.27871581 -70.453125 38.87890625 C-69.84984375 38.40324219 -69.2465625 37.92757812 -68.625 37.4375 C-67.70460938 36.72787109 -67.70460938 36.72787109 -66.765625 36.00390625 C-66.30671875 35.63136719 -65.8478125 35.25882813 -65.375 34.875 C-65.705 34.215 -66.035 33.555 -66.375 32.875 Z M-145.375 38.875 C-142.90233235 38.53055119 -142.90233235 38.53055119 -140.375 37.875 C-140.045 37.215 -139.715 36.555 -139.375 35.875 C-142.13723278 35.875 -143.26781454 37.18925163 -145.375 38.875 Z M-113.375 38.875 C-110.90233235 38.53055119 -110.90233235 38.53055119 -108.375 37.875 C-108.045 37.215 -107.715 36.555 -107.375 35.875 C-110.13723278 35.875 -111.26781454 37.18925163 -113.375 38.875 Z M-12.9375 59.875 C-13.65188232 60.19243164 -14.36626465 60.50986328 -15.10229492 60.83691406 C-22.12456501 64.05443089 -29.23642826 67.974558 -34.375 73.875 C-34.375 74.535 -34.375 75.195 -34.375 75.875 C-20.80359858 74.16753518 -11.8506859 67.14907556 -2.375 57.875 C-6.55060339 56.4831322 -9.1219948 58.15456683 -12.9375 59.875 Z " fill="#000000" transform="translate(742.375,145.125)"/>
<path d="M0 0 C19.47 0 38.94 0 59 0 C59 1.98 59 3.96 59 6 C58.10796875 6.21914062 57.2159375 6.43828125 56.296875 6.6640625 C49.06134871 8.49001197 49.06134871 8.49001197 43.25 12.875 C40.73008116 19.1747971 40.85151457 25.43501721 40.85473633 32.11694336 C40.85137772 33.12094681 40.8480191 34.12495026 40.84455872 35.15937805 C40.83508024 38.46954596 40.83310728 41.77966313 40.83203125 45.08984375 C40.82881695 47.39620484 40.82545275 49.70256573 40.82194519 52.00892639 C40.81596201 56.83985873 40.8141045 61.6707732 40.81469727 66.50170898 C40.81479894 72.6865882 40.80113733 78.87135276 40.78392506 85.0562048 C40.77279873 89.81832911 40.77077824 94.58042574 40.77130699 99.34256172 C40.7701282 101.62268024 40.76571206 103.9027995 40.75797462 106.1829052 C40.74816038 109.37323898 40.75105837 112.56332419 40.75708008 115.75366211 C40.75146057 116.69154572 40.74584106 117.62942932 40.74005127 118.59573364 C40.76930494 124.70539532 40.99376863 130.27080237 44.734375 135.359375 C47.58057094 137.42041344 49.78097629 137.79751865 53.25 138.25 C54.32765625 138.39953125 55.4053125 138.5490625 56.515625 138.703125 C57.33546875 138.80109375 58.1553125 138.8990625 59 139 C59 140.98 59 142.96 59 145 C39.53 145 20.06 145 0 145 C0 143.02 0 141.04 0 139 C0.90363281 138.89042969 1.80726563 138.78085938 2.73828125 138.66796875 C3.91777344 138.50941406 5.09726562 138.35085937 6.3125 138.1875 C7.48425781 138.03667969 8.65601563 137.88585937 9.86328125 137.73046875 C13.04368306 136.98982723 14.18852826 136.65229139 16 134 C16.92538854 131.02907831 17.12931205 128.33394813 17.14044189 125.23147583 C17.14615204 124.27543457 17.15186218 123.31939331 17.15774536 122.3343811 C17.15886322 121.29220428 17.15998108 120.25002747 17.16113281 119.17626953 C17.16609772 118.07341614 17.17106262 116.97056274 17.17617798 115.83428955 C17.19079024 112.18379087 17.1975996 108.53333563 17.203125 104.8828125 C17.20887662 102.34699502 17.21463435 99.81117756 17.22039795 97.27536011 C17.22956214 92.63708768 17.23586394 87.99882829 17.2388947 83.36054909 C17.24337545 76.5415609 17.26092812 69.72277316 17.2898953 62.90384591 C17.31414258 56.989984 17.32184023 51.07617188 17.32357025 45.16225815 C17.32659829 42.64964582 17.33463187 40.13703438 17.34775543 37.6244545 C17.36480203 34.1103214 17.36293891 30.59667715 17.35644531 27.08251953 C17.3656601 26.04439117 17.37487488 25.00626282 17.3843689 23.93667603 C17.35341792 18.59206302 17.18692905 14.53013775 14 10 C10.63583305 8.41847823 10.63583305 8.41847823 6.8125 7.625 C4.90404297 7.14933594 4.90404297 7.14933594 2.95703125 6.6640625 C1.98121094 6.44492188 1.00539063 6.22578125 0 6 C0 4.02 0 2.04 0 0 Z " fill="#000000" transform="translate(651,2)"/>
<path d="M0 0 C19.47 0 38.94 0 59 0 C59 1.98 59 3.96 59 6 C58.09636719 6.25394531 57.19273437 6.50789062 56.26171875 6.76953125 C55.08222656 7.11371094 53.90273438 7.45789063 52.6875 7.8125 C51.51574219 8.14894531 50.34398437 8.48539063 49.13671875 8.83203125 C46.07689495 9.97136788 45.00341448 10.55783656 43 13 C40.62497732 19.22536821 40.71288051 25.98204845 40.74121094 32.54931641 C40.7377063 33.56351151 40.73420166 34.5777066 40.73059082 35.62263489 C40.72184402 38.94901531 40.72759682 42.2751802 40.734375 45.6015625 C40.73302654 47.92605632 40.73108449 50.25054987 40.72857666 52.57504272 C40.72563513 57.43514708 40.7298926 62.29517769 40.73925781 67.15527344 C40.75066443 73.37707179 40.74407897 79.59869781 40.73211288 85.82048988 C40.72487895 90.61607151 40.72718906 95.41161241 40.73236847 100.20719528 C40.73370006 102.50126542 40.73207448 104.79533928 40.72740936 107.08940506 C40.72231759 110.29619371 40.73009125 113.50270464 40.74121094 116.70947266 C40.73716248 117.65199387 40.73311401 118.59451508 40.72894287 119.56559753 C40.7621394 124.74612286 41.15180224 129.13402196 43 134 C43.66 134.33 44.32 134.66 45 135 C45 135.66 45 136.32 45 137 C45.92683594 137.13277344 46.85367188 137.26554688 47.80859375 137.40234375 C49.00613281 137.57894531 50.20367187 137.75554687 51.4375 137.9375 C52.63246094 138.11152344 53.82742188 138.28554687 55.05859375 138.46484375 C58 139 58 139 59 140 C59 141.65 59 143.3 59 145 C39.53 145 20.06 145 0 145 C0 143.02 0 141.04 0 139 C0.90363281 138.90203125 1.80726563 138.8040625 2.73828125 138.703125 C4.50751953 138.47882813 4.50751953 138.47882813 6.3125 138.25 C8.07013672 138.04117188 8.07013672 138.04117188 9.86328125 137.828125 C13.04814738 137.27320392 13.04814738 137.27320392 14.85546875 135.109375 C16.67945257 131.74776659 17.12527916 129.10371888 17.12698364 125.34500122 C17.13121338 123.91083359 17.13121338 123.91083359 17.13552856 122.44769287 C17.13350433 121.40034973 17.1314801 120.35300659 17.12939453 119.27392578 C17.13114685 118.16961212 17.13289917 117.06529846 17.13470459 115.92752075 C17.13911582 112.26676881 17.13618724 108.60606496 17.1328125 104.9453125 C17.13348584 102.40567007 17.13445613 99.86602771 17.13571167 97.3263855 C17.13718773 91.99834522 17.13513248 86.67032224 17.13037109 81.34228516 C17.12493441 75.18762732 17.12668756 69.03300264 17.1321975 62.87834561 C17.13728823 56.95433408 17.13674158 51.03033283 17.13381577 45.10631943 C17.13314825 42.58730947 17.13396883 40.06829867 17.13629532 37.5492897 C17.13883327 34.02779141 17.13496474 30.50635683 17.12939453 26.98486328 C17.13141876 25.9415686 17.13344299 24.89827393 17.13552856 23.82336426 C17.13270874 22.86161285 17.12988892 21.89986145 17.12698364 20.90896606 C17.1264181 19.66071139 17.1264181 19.66071139 17.12584114 18.38723946 C16.99184011 15.84520474 16.55664252 13.48102644 16 11 C15.34 11 14.68 11 14 11 C14 10.34 14 9.68 14 9 C13.24074219 8.86722656 12.48148438 8.73445312 11.69921875 8.59765625 C10.70535156 8.42105469 9.71148437 8.24445312 8.6875 8.0625 C7.70136719 7.88847656 6.71523437 7.71445313 5.69921875 7.53515625 C3 7 3 7 0 6 C0 4.02 0 2.04 0 0 Z " fill="#000000" transform="translate(205,2)"/>
</svg>
