<?xml version="1.0" encoding="UTF-8"?>
<svg version="1.1" xmlns="http://www.w3.org/2000/svg" width="1199" height="589">
<path d="M0 0 C0.93009888 0.00215515 1.86019775 0.0043103 2.81848145 0.00653076 C81.09930416 0.29532213 156.0496868 25.84262193 213.125 80.3125 C213.99769531 81.14394531 214.87039063 81.97539063 215.76953125 82.83203125 C221.71452788 88.6309143 226.96552017 94.81363052 232.125 101.3125 C232.75792969 102.06660156 233.39085937 102.82070312 234.04296875 103.59765625 C281.08403598 160.14392882 299.32278506 239.65469359 293.17944336 311.91015625 C288.83235987 356.48983293 272.72072705 408.19468209 244.13671875 443.375 C242.95676439 445.27893928 242.95676439 445.27893928 243.09765625 447.55078125 C244.64742924 451.71690104 247.21807642 454.96442679 249.875 458.5 C251.06660147 460.11704366 252.25800216 461.7342353 253.44921875 463.3515625 C254.06071777 464.1755957 254.6722168 464.99962891 255.30224609 465.84863281 C258.12817799 469.66852361 260.90834716 473.52101107 263.6875 477.375 C264.22536133 478.11903076 264.76322266 478.86306152 265.31738281 479.62963867 C269.45660684 485.3624515 273.53846651 491.13420629 277.60571289 496.91821289 C281.23960726 502.07840252 284.92181711 507.20185462 288.625 512.3125 C293.39534183 518.89669516 298.11698875 525.51264533 302.79003906 532.16625977 C305.20330144 535.60042439 307.63097596 539.02190909 310.09765625 542.41796875 C310.56598877 543.06475586 311.03432129 543.71154297 311.5168457 544.37792969 C312.40075263 545.59630077 313.28842354 546.81195293 314.18041992 548.02441406 C317.125 552.09036146 317.125 552.09036146 317.125 554.3125 C294.5330915 554.71031793 271.94176346 555.00973635 249.3470583 555.19330692 C238.85477156 555.2808245 228.36466567 555.40004217 217.8737793 555.5949707 C208.72547685 555.76487141 199.57875391 555.87419286 190.42891759 555.91200441 C185.58688046 555.93409798 180.74935997 555.98566763 175.90877724 556.10991096 C144.05748174 556.89674408 144.05748174 556.89674408 136.8999939 550.5553894 C133.88418679 547.08533928 131.75113949 543.42969297 129.95401573 539.20957756 C128.9776246 536.97525362 127.69810751 535.16941407 126.125 533.3125 C121.16997705 534.71865516 116.80443036 536.92926637 112.23413086 539.24780273 C49.61336089 570.76225226 -23.62652178 572.81302353 -89.84814453 551.33544922 C-126.2858865 539.02103247 -160.4337458 519.80936563 -188.5703125 493.46875 C-190.628283 491.54332675 -192.72967317 489.70154333 -194.875 487.875 C-202.85499952 480.90677956 -210.07386699 473.37563598 -216.65625 465.078125 C-218.09511132 463.28461476 -219.57280595 461.52132565 -221.09375 459.796875 C-252.54623082 423.94104686 -274.12121456 375.5744731 -282.3671875 328.8125 C-282.62127435 326.3821593 -282.62127435 326.3821593 -283.875 325.3125 C-283.99504395 325.93479492 -284.11508789 326.55708984 -284.23876953 327.19824219 C-294.09520279 377.73216622 -315.34346879 424.95677366 -348.875 464.3125 C-349.76258245 465.38470227 -350.64925389 466.45765914 -351.53515625 467.53125 C-361.70509149 479.75049422 -372.71988558 491.41964986 -385.25 501.24609375 C-388.11507438 503.50148712 -390.86107876 505.87199861 -393.625 508.25 C-427.12973107 536.17781454 -470.33416149 554.31622436 -512.875 562.3125 C-513.67856934 562.46412598 -514.48213867 562.61575195 -515.31005859 562.77197266 C-535.37237279 566.42525734 -556.49181586 568.24812157 -576.875 567.3125 C-578.39867187 567.24289062 -578.39867187 567.24289062 -579.953125 567.171875 C-649.66542426 563.70203205 -717.5897796 540.24863892 -769.05859375 491.94140625 C-771.72661959 489.4510021 -774.446903 487.03490656 -777.1875 484.625 C-781.46142256 480.77779237 -785.18101068 476.70834729 -788.875 472.3125 C-789.74640625 471.32894531 -790.6178125 470.34539062 -791.515625 469.33203125 C-837.30220808 417.52371674 -860.07785986 349.69855082 -860.125 281.0625 C-860.12567474 280.1761084 -860.12634949 279.2897168 -860.12704468 278.37646484 C-860.10989883 264.15470719 -859.42573564 250.3328362 -856.875 236.3125 C-856.70339355 235.33506836 -856.53178711 234.35763672 -856.35498047 233.35058594 C-848.34458402 188.69566809 -829.15165618 145.79631864 -800.875 110.3125 C-800.10800781 109.33410156 -799.34101562 108.35570313 -798.55078125 107.34765625 C-785.97579807 91.61199507 -771.74809355 76.72079823 -755.875 64.3125 C-754.78399833 63.43242309 -753.6942085 62.55084233 -752.60546875 61.66796875 C-702.37969573 21.1778078 -640.01273842 1.10032235 -575.875 1.0625 C-574.84888611 1.06182526 -573.82277222 1.06115051 -572.76556396 1.06045532 C-514.26390996 1.12150033 -456.76930715 16.92588416 -408.875 51.3125 C-408.31039063 51.7142041 -407.74578125 52.1159082 -407.1640625 52.52978516 C-388.88954032 65.60609722 -371.35417563 81.11847893 -356.875 98.3125 C-356.19824219 99.11059082 -356.19824219 99.11059082 -355.5078125 99.92480469 C-342.78642172 114.99437964 -331.56277834 131.13153039 -321.875 148.3125 C-321.27824463 149.36244141 -321.27824463 149.36244141 -320.66943359 150.43359375 C-312.56056295 164.83530236 -305.63913591 180.01748362 -301.31199646 196.00366211 C-300.90798441 197.49366982 -300.90798441 197.49366982 -300.49581051 199.01377869 C-300.29094304 199.77235672 -300.08607557 200.53093475 -299.875 201.3125 C-322.40613925 201.52288969 -344.93711617 201.68152176 -367.46903896 201.77880955 C-377.93143519 201.82518607 -388.39322053 201.88839502 -398.85522461 201.99145508 C-407.97564373 202.08125638 -417.0956204 202.13924655 -426.21646935 202.15929645 C-431.04464984 202.17101418 -435.87156474 202.19848264 -440.69933891 202.26407051 C-445.24775504 202.32535999 -449.79438984 202.34396543 -454.3431797 202.33046913 C-456.0084948 202.33293641 -457.6738721 202.350725 -459.33882904 202.38534927 C-471.91217763 202.63390222 -471.91217763 202.63390222 -476.82104683 199.32917595 C-479.06382822 197.10002922 -480.96901242 194.82935383 -482.875 192.3125 C-486.43148872 189.16842812 -490.1435325 186.24581982 -493.875 183.3125 C-494.80054688 182.55839844 -495.72609375 181.80429688 -496.6796875 181.02734375 C-516.6902313 165.21955644 -541.62964232 158.31022072 -566.875 157.3125 C-567.55224121 157.28526855 -568.22948242 157.25803711 -568.92724609 157.22998047 C-605.1500277 155.97493094 -638.12675709 168.5470853 -664.65356445 193.23510742 C-688.81504868 216.19230576 -702.29178792 247.244374 -703.15869141 280.51586914 C-703.55371589 315.43536436 -690.6446458 345.03507816 -666.875 370.3125 C-666.08609375 371.19808594 -666.08609375 371.19808594 -665.28125 372.1015625 C-645.24524704 393.67093303 -612.09576442 407.91263225 -582.88427734 409.47216797 C-554.08069835 410.51587005 -527.38734364 404.60574327 -502.625 389.5625 C-502.02429688 389.20518799 -501.42359375 388.84787598 -500.8046875 388.47973633 C-493.96065589 384.14989498 -489.07447087 378.9953483 -482.875 373.3125 C-505.975 372.9825 -529.075 372.6525 -552.875 372.3125 C-552.875 328.0925 -552.875 283.8725 -552.875 238.3125 C-464.105 238.3125 -375.335 238.3125 -283.875 238.3125 C-283.545 234.6825 -283.215 231.0525 -282.875 227.3125 C-282.55316148 225.46364666 -282.19020096 223.62022562 -281.74609375 221.796875 C-281.52010498 220.8677832 -281.29411621 219.93869141 -281.0612793 218.98144531 C-280.81418213 218.01819336 -280.56708496 217.05494141 -280.3125 216.0625 C-280.04928955 215.02963867 -279.7860791 213.99677734 -279.51489258 212.93261719 C-263.44794877 151.68001127 -226.39935249 96.45679732 -175.875 58.3125 C-175.20227051 57.79929199 -174.52954102 57.28608398 -173.83642578 56.75732422 C-138.21645164 29.71115767 -95.98861592 11.80510148 -52 4 C-51.17121338 3.85272461 -50.34242676 3.70544922 -49.48852539 3.55371094 C-33.06061554 0.86014561 -16.62610608 -0.0701476 0 0 Z M-77.875 180.3125 C-78.41560059 180.73644043 -78.95620117 181.16038086 -79.51318359 181.59716797 C-105.82656704 202.45431552 -124.0883934 232.90431907 -128.44140625 266.4453125 C-131.81447144 299.29303523 -124.10585933 330.07831534 -103.875 356.3125 C-101.00557441 359.78250304 -97.99028506 363.06289087 -94.875 366.3125 C-94.06675781 367.19550781 -93.25851562 368.07851563 -92.42578125 368.98828125 C-70.61950126 392.03318401 -40.78495038 403.17341621 -9.6640625 405.55859375 C-1.70478311 405.76175854 6.26050498 404.4176737 14.125 403.3125 C8.68307426 394.39265179 2.67497026 385.89233758 -3.3359375 377.3515625 C-6.33646048 373.0873238 -9.30448283 368.80235901 -12.25 364.5 C-16.76083 357.91591662 -21.31345529 351.36153688 -25.875 344.8125 C-34.41287502 332.54766387 -42.92484984 320.27405917 -51.203125 307.83203125 C-51.75178223 307.00819946 -52.30043945 306.18436768 -52.86572266 305.33557129 C-54.20254917 303.32814716 -55.53896759 301.32045269 -56.875 299.3125 C-34.02172294 299.04552058 -11.16956821 298.87650098 11.68524456 298.82284451 C22.29831495 298.79566501 32.90942635 298.7369097 43.52172852 298.6027832 C52.77586733 298.48590347 62.02811742 298.42932392 71.2830165 298.44396263 C76.18065846 298.44963448 81.07403969 298.42592918 85.97083092 298.32989311 C118.26927914 297.72639218 118.26927914 297.72639218 125.41201782 304.22366333 C128.43103409 307.75449375 130.61784071 311.47137983 132.3391695 315.78176975 C132.7281556 316.53948123 132.7281556 316.53948123 133.125 317.3125 C133.785 317.3125 134.445 317.3125 135.125 317.3125 C135.7770027 314.50130696 136.42170121 311.68874969 137.0625 308.875 C137.24490234 308.09189453 137.42730469 307.30878906 137.61523438 306.50195312 C144.58333071 275.71563659 137.46037183 243.35465349 120.96484375 216.7109375 C100.05996256 185.52434523 69.21193401 163.91635392 32.4140625 156.125 C-6.0364803 148.55751276 -46.68305113 155.8249805 -77.875 180.3125 Z " fill="#CE051D" transform="translate(870.875,10.6875)"/>
<path d="M0 0 C1.02611389 -0.00067474 2.05222778 -0.00134949 3.10943604 -0.00204468 C61.61109004 0.05900033 119.10569285 15.86338416 167 50.25 C167.56460937 50.6517041 168.12921875 51.0534082 168.7109375 51.46728516 C186.98545968 64.54359722 204.52082437 80.05597893 219 97.25 C219.67675781 98.04809082 219.67675781 98.04809082 220.3671875 98.86230469 C233.08857828 113.93187964 244.31222166 130.06903039 254 147.25 C254.59675537 148.29994141 254.59675537 148.29994141 255.20556641 149.37109375 C263.31443705 163.77280236 270.23586409 178.95498362 274.56300354 194.94116211 C274.96701559 196.43116982 274.96701559 196.43116982 275.37918949 197.95127869 C275.58405696 198.70985672 275.78892443 199.46843475 276 200.25 C253.46886075 200.46038969 230.93788383 200.61902176 208.40596104 200.71630955 C197.94356481 200.76268607 187.48177947 200.82589502 177.01977539 200.92895508 C167.89935627 201.01875638 158.7793796 201.07674655 149.65853065 201.09679645 C144.83035016 201.10851418 140.00343526 201.13598264 135.17566109 201.20157051 C130.62724496 201.26285999 126.08061016 201.28146543 121.5318203 201.26796913 C119.8665052 201.27043641 118.2011279 201.288225 116.53617096 201.32284927 C103.96282237 201.57140222 103.96282237 201.57140222 99.05395317 198.26667595 C96.81117178 196.03752922 94.90598758 193.76685383 93 191.25 C89.44351128 188.10592812 85.7314675 185.18331982 82 182.25 C81.07445312 181.49589844 80.14890625 180.74179688 79.1953125 179.96484375 C59.1847687 164.15705644 34.24535768 157.24772072 9 156.25 C8.32275879 156.22276855 7.64551758 156.19553711 6.94775391 156.16748047 C-29.2750277 154.91243094 -62.25175709 167.4845853 -88.77856445 192.17260742 C-112.94004868 215.12980576 -126.41678792 246.181874 -127.28369141 279.45336914 C-127.67871589 314.37286436 -114.7696458 343.97257816 -91 369.25 C-90.21109375 370.13558594 -90.21109375 370.13558594 -89.40625 371.0390625 C-69.37024704 392.60843303 -36.22076442 406.85013225 -7.00927734 408.40966797 C21.79430165 409.45337005 48.48765636 403.54324327 73.25 388.5 C73.85070312 388.14268799 74.45140625 387.78537598 75.0703125 387.41723633 C81.91434411 383.08739498 86.80052913 377.9328483 93 372.25 C69.9 371.92 46.8 371.59 23 371.25 C23 327.03 23 282.81 23 237.25 C111.77 237.25 200.54 237.25 292 237.25 C291.67 241.54 291.34 245.83 291 250.25 C290.91434027 253.91736768 290.85901206 257.56435383 290.8671875 261.23046875 C290.86623077 262.20937576 290.86527405 263.18828278 290.86428833 264.19685364 C290.86361476 266.24280869 290.86541079 268.28876598 290.86962891 270.3347168 C290.87500657 273.44129271 290.86964667 276.54772524 290.86328125 279.65429688 C290.86394184 281.65885448 290.8652226 283.663412 290.8671875 285.66796875 C290.86516327 286.58176804 290.86313904 287.49556732 290.86105347 288.4370575 C290.87988597 293.6840768 291.17200049 298.82219956 291.75921631 304.03703308 C297.45301285 356.36692019 264.56574101 415.3724882 233.6640625 455.265625 C231.48058255 457.96147389 229.24985638 460.60935912 227 463.25 C226.11241755 464.32220227 225.22574611 465.39515914 224.33984375 466.46875 C214.16990851 478.68799422 203.15511442 490.35714986 190.625 500.18359375 C187.75992562 502.43898712 185.01392124 504.80949861 182.25 507.1875 C148.74526893 535.11531454 105.54083851 553.25372436 63 561.25 C62.19643066 561.40162598 61.39286133 561.55325195 60.56494141 561.70947266 C40.50262721 565.36275734 19.38318414 567.18562157 -1 566.25 C-2.52367187 566.18039062 -2.52367187 566.18039062 -4.078125 566.109375 C-73.79042426 562.63953205 -141.7147796 539.18613892 -193.18359375 490.87890625 C-195.85161959 488.3885021 -198.571903 485.97240656 -201.3125 483.5625 C-205.58642256 479.71529237 -209.30601068 475.64584729 -213 471.25 C-213.87140625 470.26644531 -214.7428125 469.28289062 -215.640625 468.26953125 C-261.42720808 416.46121674 -284.20285986 348.63605082 -284.25 280 C-284.25067474 279.1136084 -284.25134949 278.2272168 -284.25204468 277.31396484 C-284.23489883 263.09220719 -283.55073564 249.2703362 -281 235.25 C-280.82839355 234.27256836 -280.65678711 233.29513672 -280.47998047 232.28808594 C-272.46958402 187.63316809 -253.27665618 144.73381864 -225 109.25 C-224.23300781 108.27160156 -223.46601563 107.29320313 -222.67578125 106.28515625 C-210.10079807 90.54949507 -195.87309355 75.65829823 -180 63.25 C-178.90899833 62.36992309 -177.8192085 61.48834233 -176.73046875 60.60546875 C-126.50469573 20.1153078 -64.13773842 0.03782235 0 0 Z " fill="#181C21" transform="translate(295,11.75)"/>
</svg>
