<svg version="1.2" xmlns="http://www.w3.org/2000/svg" viewBox="0 0 1199 589" width="1199" height="589">
	<style>
		.s0 { fill: #ce051d } 
		.s1 { fill: #ffffff } 
	</style>
	<path class="s0" d="m870.88 10.69q1.38 0 2.81 0c78.28 0.29 153.23 25.84 210.31 80.31q1.3 1.24 2.64 2.52c5.95 5.8 11.2 11.98 16.36 18.48q0.94 1.13 1.92 2.29c47.04 56.54 65.28 136.05 59.13 208.31-4.34 44.58-20.45 96.28-49.04 131.46-1.18 1.91-1.18 1.91-1.04 4.18 1.55 4.16 4.12 7.41 6.78 10.95q1.79 2.42 3.57 4.85 0.92 1.23 1.86 2.5 4.22 5.73 8.38 11.52 0.81 1.11 1.63 2.26 6.2 8.6 12.29 17.29 5.46 7.73 11.02 15.39 7.16 9.87 14.17 19.85 3.61 5.16 7.3 10.26 0.7 0.96 1.42 1.96 1.33 1.82 2.67 3.64c2.94 4.07 2.94 4.07 2.94 6.29q-33.89 0.6-67.78 0.88-15.74 0.12-31.47 0.4-13.72 0.26-27.45 0.32-7.26 0.02-14.52 0.2c-31.85 0.78-31.85 0.78-39.01-5.56-3.01-3.47-5.14-7.12-6.94-11.34-0.98-2.24-2.26-4.04-3.83-5.9-4.96 1.41-9.32 3.62-13.89 5.94-62.62 31.51-135.86 33.56-202.08 12.08-36.44-12.31-70.59-31.52-98.73-57.86-2.05-1.93-4.15-3.77-6.3-5.6-7.98-6.97-15.2-14.5-21.78-22.79q-2.16-2.7-4.44-5.29c-31.45-35.85-53.03-84.22-61.27-130.98-0.26-2.43-0.26-2.43-1.51-3.5q-0.18 0.93-0.36 1.89c-9.86 50.53-31.11 97.75-64.64 137.11q-1.33 1.61-2.66 3.22c-10.17 12.22-21.18 23.89-33.71 33.71-2.87 2.26-5.62 4.63-8.38 7.01-33.5 27.93-76.71 46.06-119.25 54.06q-1.2 0.23-2.44 0.46c-20.06 3.65-41.18 5.48-61.56 4.54-1.52-0.07-1.52-0.07-3.08-0.14-69.71-3.47-137.63-26.92-189.1-75.23-2.67-2.49-5.39-4.91-8.13-7.32-4.28-3.84-8-7.91-11.69-12.31q-1.3-1.47-2.64-2.98c-45.79-51.81-68.56-119.63-68.61-188.27q0-1.32 0-2.69c0.02-14.22 0.7-28.04 3.25-42.06q0.26-1.46 0.52-2.96c8.01-44.66 27.2-87.56 55.48-123.04q1.14-1.46 2.32-2.96c12.58-15.74 26.81-30.63 42.68-43.04q1.64-1.32 3.27-2.64c50.23-40.49 112.59-60.57 176.73-60.61q1.53 0 3.11 0c58.5 0.06 116 15.86 163.89 50.25q0.84 0.6 1.71 1.22c18.28 13.07 35.81 28.59 50.29 45.78 0.68 0.8 0.68 0.8 1.37 1.61q19.09 22.61 33.63 48.39c0.6 1.05 0.6 1.05 1.21 2.12 8.1 14.4 15.03 29.58 19.35 45.57 0.41 1.49 0.41 1.49 0.82 3.01q0.3 1.13 0.62 2.3-33.8 0.32-67.59 0.47-15.7 0.06-31.39 0.21-13.68 0.14-27.36 0.17-7.24 0.01-14.48 0.1-6.83 0.09-13.65 0.07-2.5 0-4.99 0.05c-12.58 0.25-12.58 0.25-17.49-3.05-2.24-2.23-4.14-4.5-6.05-7.02-3.56-3.14-7.27-6.07-11-9q-1.38-1.13-2.8-2.29c-20.02-15.8-44.95-22.71-70.2-23.71q-1.01-0.04-2.05-0.08c-36.23-1.26-69.2 11.31-95.73 36-24.16 22.96-37.64 54.01-38.5 87.28-0.4 34.92 12.51 64.52 36.28 89.8 0.79 0.89 0.79 0.89 1.59 1.79 20.04 21.57 53.19 35.81 82.4 37.37 28.8 1.04 55.5-4.87 80.26-19.91q0.9-0.53 1.82-1.08c6.84-4.33 11.73-9.49 17.93-15.17-23.1-0.33-46.2-0.66-70-1 0-44.22 0-88.44 0-134 88.77 0 177.54 0 269 0 0.33-3.63 0.66-7.26 1-11q0.47-2.78 1.13-5.52 0.34-1.38 0.68-2.81 0.37-1.44 0.75-2.92 0.4-1.54 0.8-3.13c16.07-61.25 53.12-116.48 103.64-154.62q1-0.77 2.04-1.56c35.62-27.04 77.85-44.95 121.84-52.75q1.23-0.22 2.51-0.45c16.42-2.69 32.86-3.62 49.49-3.55zm-77.88 180.31q-0.81 0.63-1.64 1.28c-26.31 20.86-44.57 51.31-48.93 84.85-3.37 32.85 4.34 63.64 24.57 89.87 2.87 3.47 5.88 6.75 9 10q1.21 1.32 2.45 2.68c21.81 23.04 51.64 34.18 82.76 36.57 7.96 0.2 15.93-1.14 23.79-2.25-5.44-8.92-11.45-17.42-17.46-25.96q-4.5-6.4-8.91-12.85-6.78-9.87-13.63-19.69c-8.54-12.26-17.05-24.54-25.33-36.98q-0.82-1.23-1.66-2.5-2.01-3.01-4.01-6.02 34.28-0.4 68.56-0.49 15.92-0.03 31.84-0.22 13.88-0.18 27.76-0.16 7.34 0.02 14.69-0.11c32.29-0.61 32.29-0.61 39.44 5.89 3.02 3.53 5.2 7.25 6.92 11.56 0.39 0.76 0.39 0.76 0.79 1.53q0.99 0 2 0 0.98-4.22 1.94-8.44 0.27-1.17 0.55-2.37c6.97-30.79-0.15-63.15-16.65-89.79-20.91-31.19-51.75-52.8-88.55-60.59-38.45-7.56-79.1-0.3-110.29 24.19z"/>
	<path class="s1" d="m295 11.75q1.53 0 3.11 0c58.5 0.06 116 15.86 163.89 50.25q0.84 0.6 1.71 1.22c18.28 13.07 35.81 28.59 50.29 45.78 0.68 0.8 0.68 0.8 1.37 1.61q19.09 22.61 33.63 48.39c0.6 1.05 0.6 1.05 1.21 2.12 8.1 14.4 15.03 29.58 19.35 45.57 0.41 1.49 0.41 1.49 0.82 3.01q0.3 1.13 0.62 2.3-33.8 0.32-67.59 0.47-15.7 0.06-31.39 0.21-13.68 0.14-27.36 0.17-7.24 0.01-14.48 0.1-6.83 0.09-13.65 0.07-2.5 0-4.99 0.05c-12.58 0.25-12.58 0.25-17.49-3.05-2.24-2.23-4.14-4.5-6.05-7.02-3.56-3.14-7.27-6.07-11-9q-1.38-1.13-2.8-2.29c-20.02-15.8-44.95-22.71-70.2-23.71q-1.01-0.04-2.05-0.08c-36.23-1.26-69.2 11.31-95.73 36-24.16 22.96-37.64 54.01-38.5 87.28-0.4 34.92 12.51 64.52 36.28 89.8 0.79 0.89 0.79 0.89 1.59 1.79 20.04 21.57 53.19 35.81 82.4 37.37 28.8 1.04 55.5-4.87 80.26-19.91q0.9-0.53 1.82-1.08c6.84-4.33 11.73-9.49 17.93-15.17-23.1-0.33-46.2-0.66-70-1 0-44.22 0-88.44 0-134 88.77 0 177.54 0 269 0-0.33 4.29-0.66 8.58-1 13q-0.14 5.49-0.13 10.98 0 1.46-0.01 2.97 0 3.07 0.01 6.13 0.01 4.66-0.01 9.32 0 3.01 0.01 6.02-0.01 1.36-0.01 2.77c0.02 5.24 0.31 10.38 0.9 15.6 5.69 52.33-27.19 111.33-58.1 151.23q-3.28 4.03-6.66 7.98-1.33 1.61-2.66 3.22c-10.17 12.22-21.18 23.89-33.71 33.71-2.87 2.26-5.62 4.63-8.38 7.01-33.5 27.93-76.71 46.06-119.25 54.06q-1.2 0.23-2.44 0.46c-20.06 3.65-41.18 5.48-61.56 4.54-1.52-0.07-1.52-0.07-3.08-0.14-69.71-3.47-137.63-26.92-189.1-75.23-2.67-2.49-5.39-4.91-8.13-7.32-4.28-3.84-8-7.91-11.69-12.31q-1.3-1.47-2.64-2.98c-45.79-51.81-68.56-119.63-68.61-188.27q0-1.32 0-2.69c0.02-14.22 0.7-28.04 3.25-42.06q0.26-1.46 0.52-2.96c8.01-44.66 27.2-87.56 55.48-123.04q1.14-1.46 2.32-2.96c12.58-15.74 26.81-30.63 42.68-43.04q1.64-1.32 3.27-2.64c50.23-40.49 112.59-60.57 176.73-60.61z"/>
</svg>