<?xml version="1.0" encoding="UTF-8"?>
<svg version="1.1" xmlns="http://www.w3.org/2000/svg" width="348" height="81">
<path d="M0 0 C3.06425849 2.96541144 3.83043282 5.76082062 4 10 C2.8125 13.3125 2.8125 13.3125 1 16 C-1.1875 16.875 -1.1875 16.875 -3 17 C-4.32 15.35 -5.64 13.7 -7 12 C-6.319375 11.443125 -5.63875 10.88625 -4.9375 10.3125 C-2.77323952 8.17151489 -2.77323952 8.17151489 -2.75 5.4375 C-3.89452894 2.64914541 -3.89452894 2.64914541 -7.375 1.125 C-13.34878908 -0.73779444 -19.53480457 -0.47417636 -25.3046875 1.98046875 C-34.04123868 7.07404293 -37.85840307 14.40706544 -40.53710938 23.90429688 C-41.30044199 27.36022894 -41.2257891 30.85231411 -41.25 34.375 C-41.270625 35.1175 -41.29125 35.86 -41.3125 36.625 C-41.34684823 41.48527489 -40.71284899 44.80395786 -38 49 C-34.22949669 51.51366887 -32.4884841 51.13806124 -28.16015625 50.546875 C-25.15398849 49.78581987 -23.77093126 48.50881929 -22 46 C-20.81998451 42.45995354 -20.77087654 39.1772744 -20.68359375 35.48828125 C-20.66281265 34.76005661 -20.64203156 34.03183197 -20.62062073 33.28153992 C-20.55531254 30.95862125 -20.49632763 28.63559094 -20.4375 26.3125 C-20.39429695 24.73631665 -20.35068208 23.16014452 -20.30664062 21.58398438 C-20.1996504 17.72277025 -20.09833039 13.86144397 -20 10 C-18.7625 9.67 -17.525 9.34 -16.25 9 C-15.55390625 8.814375 -14.8578125 8.62875 -14.140625 8.4375 C-12 8 -12 8 -8 8 C-7.67 22.52 -7.34 37.04 -7 52 C-2.13867505 51.50847518 -2.13867505 51.50847518 0 49 C0.36952049 46.87139338 0.36952049 46.87139338 0.4140625 44.4296875 C0.45273438 43.53378906 0.49140625 42.63789062 0.53125 41.71484375 C0.5621875 40.77769531 0.593125 39.84054688 0.625 38.875 C0.66367188 37.93011719 0.70234375 36.98523437 0.7421875 36.01171875 C0.8366082 33.6748065 0.91939898 31.3374297 1 29 C3.97 28.34 6.94 27.68 10 27 C10.99 29.475 10.99 29.475 12 32 C12.495 31.360625 12.99 30.72125 13.5 30.0625 C17.08067472 27.10844335 19.37303319 27.07344392 24 27 C26.27342185 28.39338758 26.78968302 29.31342275 27.56030273 31.82910156 C28.02650454 34.13085973 28.11351436 36.19987529 28.09765625 38.546875 C28.09282227 39.81337891 28.09282227 39.81337891 28.08789062 41.10546875 C28.07532227 42.41451172 28.07532227 42.41451172 28.0625 43.75 C28.05798828 44.63816406 28.05347656 45.52632812 28.04882812 46.44140625 C28.037074 48.62767329 28.02064249 50.81380179 28 53 C28.99 52.67 29.98 52.34 31 52 C31.02578125 51.14277344 31.0515625 50.28554688 31.078125 49.40234375 C31.4212315 42.48562854 31.74218533 37.5588136 36 32 C40.47841995 27.94809624 42.9027963 26.83958602 48.96875 26.89453125 C51.37394673 27.01941646 53.64212705 27.52842541 56 28 C56.99 27.67 57.98 27.34 59 27 C59.33 34.26 59.66 41.52 60 49 C62.39324736 46.60675264 62.35547085 45.59206081 62.8125 42.3125 C63.75979916 37.23086421 65.3154529 33.66419049 69 30 C73.37888658 27.04901122 76.76618734 26.51538772 82 27 C84.76142665 28.01736771 85.68085371 28.36170741 87 31 C87.39508467 34.55576207 87.26230049 36.50961214 85.5625 39.6875 C82.08890882 42.82220423 78.46677152 43.82604082 74 45 C74.99 47.97 74.99 47.97 76 51 C79.26159241 52.0250719 80.55439611 52.2176205 83.6875 50.6875 C86.0434185 49.05949942 86.0434185 49.05949942 88 47 C88.32386062 43.89296606 88.32386062 43.89296606 88.30859375 40.2265625 C88.3338028 38.8294238 88.35919992 37.43228847 88.38476562 36.03515625 C88.41320726 33.84587942 88.43722413 31.65666361 88.45629883 29.46728516 C88.68855956 7.14473155 88.68855956 7.14473155 95 -2 C98.49124017 -4.32749345 99.89222251 -4.50299316 104 -4 C106.84780619 -1.76793569 107.84997666 -0.45007001 109 3 C109.85957907 13.14303302 107.37163389 24.29711252 102.25 33.125 C98.90860501 39.09250665 99.56906562 45.3540343 100 52 C100.99 51.67 101.98 51.34 103 51 C102.938125 49.865625 102.87625 48.73125 102.8125 47.5625 C102.85271684 41.88187108 103.78066474 36.45565337 107.6875 32.1328125 C112.03380919 28.34790158 114.97517949 26.56898072 120.953125 26.65625 C123 27 123 27 126.0625 29.125 C128 32 128 32 128.125 35 C126.70435421 38.78838878 125.18623423 40.50642539 122 43 C119.65886616 43.93548412 117.48036847 44.46501857 115 45 C115.33 46.98 115.66 48.96 116 51 C118.91390191 51.91579774 120.53144179 52.16820038 123.4375 51.125 C127.20895744 47.99744993 129.49923718 44.17512413 132 40 C132.928125 38.453125 132.928125 38.453125 133.875 36.875 C135.22774959 33.93251864 135.22774959 33.93251864 135 30.25 C135 29.1775 135 28.105 135 27 C138 25 138 25 140.1875 25.375 C140.785625 25.58125 141.38375 25.7875 142 26 C141.67 27.175625 141.34 28.35125 141 29.5625 C140.59895294 31.77329651 140.59895294 31.77329651 141 34 C142.81987591 36.15705007 144.74242376 37.69890016 147.01953125 39.359375 C151.16167693 42.79073828 151.40426126 46.83693092 152 52 C153.41623216 52.05447047 154.83308191 52.09300508 156.25 52.125 C157.03890625 52.14820313 157.8278125 52.17140625 158.640625 52.1953125 C161.20731941 51.9828378 162.7916067 51.28654105 165 50 C164.67357189 52.93785297 164.1175594 54.81876259 162.5 57.3125 C158.7715126 59.82922899 155.37141493 59.42228337 151 59 C149.33195323 58.67364302 147.66475686 58.34274406 146 58 C145.01 58.33 144.02 58.66 143 59 C138.95682905 59.39806184 135.03420946 59.52305612 131 59 C128.25 56.5 128.25 56.5 127 54 C126.154375 54.639375 125.30875 55.27875 124.4375 55.9375 C121.03175658 58.19460826 118.1198634 58.85018679 114 59 C110.42122696 58.00127264 107.86681868 56.33592633 105 54 C104.46375 54.639375 103.9275 55.27875 103.375 55.9375 C100.45515869 58.47315166 98.85701519 59 95 59 C92.0252451 57.21514706 90.37784583 56.04634229 89.1875 52.75 C89.125625 52.1725 89.06375 51.595 89 51 C88.319375 51.763125 87.63875 52.52625 86.9375 53.3125 C82.69177289 57.19688863 79.18825 59.03772845 73.375 58.9375 C68.3566943 57.54352619 65.85714692 55.28572038 63 51 C60.28063905 53.71936095 60.37515202 55.91655095 59.75 59.6875 C58.65416645 64.99765859 57.66463026 69.00142937 53.74609375 72.8515625 C50.3923329 75.05739179 48.01800365 75.19441953 44 75 C41.4375 73.5 41.4375 73.5 40 71 C39.75 67.6875 39.75 67.6875 41 64 C43.44754272 61.36260596 46.12425426 59.15517164 49 57 C48.67 56.67 48.34 56.34 48 56 C46.948125 56.7734375 46.948125 56.7734375 45.875 57.5625 C42.31068305 59.34465847 40.77560114 59.12464715 37 58 C34.625 56.4375 34.625 56.4375 33 55 C32.13375 55.680625 31.2675 56.36125 30.375 57.0625 C27 59 27 59 23.8125 59 C20.39695531 57.78558411 19.72265368 57.16968278 18 54 C17.49536229 50.92368677 17.39761537 47.86279054 17.3125 44.75 C17.27833984 43.90953125 17.24417969 43.0690625 17.20898438 42.203125 C17.12676432 40.13587796 17.06169843 38.06796126 17 36 C15.02463255 36.34786708 15.02463255 36.34786708 13 37 C11.88176185 39.23647631 11.80603939 40.64891529 11.68359375 43.1328125 C11.64169922 43.93847656 11.59980469 44.74414062 11.55664062 45.57421875 C11.51732422 46.41597656 11.47800781 47.25773437 11.4375 48.125 C11.37272461 49.39923828 11.37272461 49.39923828 11.30664062 50.69921875 C11.20045764 52.79928223 11.09971503 54.89961948 11 57 C7.7 57.66 4.4 58.32 1 59 C0.505 57.02 0.505 57.02 0 55 C-0.61875 55.639375 -1.2375 56.27875 -1.875 56.9375 C-5.07513692 60.04351525 -7.47159153 60.4545558 -11.95703125 60.421875 C-14.46934437 59.90307994 -15.33709487 59.11246754 -17 57.1875 C-19 54 -19 54 -19 51 C-19.66 51 -20.32 51 -21 51 C-21.185625 51.556875 -21.37125 52.11375 -21.5625 52.6875 C-24.00835965 56.62214378 -27.52405687 59.16965322 -31.921875 60.64453125 C-37.33084981 61.62896467 -42.15593699 60.52854532 -47 58 C-52.21533185 53.23817527 -54.45704531 47.5295809 -55.28515625 40.62109375 C-55.73391414 28.46560833 -51.6753307 15.77401371 -43.4375 6.75 C-32.35812693 -3.6540589 -13.30269137 -9.20955556 0 0 Z M101 -1 C98.75265072 2.59264833 98.76799492 5.55142073 98.8046875 9.734375 C98.81113281 11.02988281 98.81757813 12.32539063 98.82421875 13.66015625 C98.84092807 15.02344019 98.85785794 16.38672144 98.875 17.75 C98.8850366 19.12889985 98.89416127 20.50780665 98.90234375 21.88671875 C98.92591907 25.25798882 98.9588273 28.62890636 99 32 C104.31330371 24.03004444 105.86925267 12.22490693 104.5625 2.8125 C104.376875 1.884375 104.19125 0.95625 104 0 C103.01 -0.33 102.02 -0.66 101 -1 Z M45 30 C41.78021101 34.30434949 41.60062451 38.05920161 41.75 43.25 C41.75515625 43.9821875 41.7603125 44.714375 41.765625 45.46875 C41.50977362 49.0305461 41.50977362 49.0305461 43 52 C45.45792029 52.33343551 45.45792029 52.33343551 48 52 C50.06723714 48.89914429 50.24497423 48.27068319 50.1953125 44.76953125 C50.18886719 43.96708984 50.18242187 43.16464844 50.17578125 42.33789062 C50.15902344 41.50451172 50.14226562 40.67113281 50.125 39.8125 C50.11146484 38.5450293 50.11146484 38.5450293 50.09765625 37.25195312 C50.07410703 35.16784757 50.03823647 33.08388783 50 31 C48.35 30.67 46.7 30.34 45 30 Z M77 30 C73.46209597 33.69172595 73.40884117 37.09390595 73 42 C77.64733542 40.39874465 77.64733542 40.39874465 81 37 C81.25048636 33.87450983 81.25048636 33.87450983 81 31 C79.68 30.67 78.36 30.34 77 30 Z M117 30 C114.58314288 34.22949995 113.65166856 37.12335991 114 42 C118.70842624 39.88673474 118.70842624 39.88673474 122 36 C122.16713569 33.37468476 122.16713569 33.37468476 122 31 C120.35 30.67 118.7 30.34 117 30 Z M137 38 C135.93371487 39.57432126 134.92193317 41.18574165 133.9375 42.8125 C133.38964844 43.70582031 132.84179688 44.59914063 132.27734375 45.51953125 C130.77108876 47.97951488 130.77108876 47.97951488 131 51 C131.886875 50.814375 132.77375 50.62875 133.6875 50.4375 C136.85178811 50.01957516 138.94839642 50.19222258 142 51 C141.56407724 45.85611138 141.18386087 42.24514783 138 38 C137.67 38 137.34 38 137 38 Z M132 53 C132.33 53.99 132.66 54.98 133 56 C134.65 56 136.3 56 138 56 C138.33 55.34 138.66 54.68 139 54 C136.69 53.67 134.38 53.34 132 53 Z M46.9375 62.625 C44.507276 65.60398425 44.65950172 67.25451893 45 71 C46.32 71.33 47.64 71.66 49 72 C50.20272819 69.59454362 50.10071472 68.05003047 50.0625 65.375 C50.05347656 64.55773437 50.04445313 63.74046875 50.03515625 62.8984375 C50.02355469 62.27195312 50.01195312 61.64546875 50 61 C48.69329129 60.89685463 48.69329129 60.89685463 46.9375 62.625 Z " fill="#110F0F" transform="translate(179,6)"/>
<path d="M0 0 C3.29778802 2.41301562 5.4159079 4.36239475 7.5625 7.875 C7.82719878 11.03517928 7.57147739 13.86526631 6.5625 16.875 C5 18.64453125 5 18.64453125 3.5625 19.875 C1.5625 18.875 -0.4375 17.875 -2.4375 16.875 C-1.9425 15.39 -1.9425 15.39 -1.4375 13.875 C-0.7775 13.875 -0.1175 13.875 0.5625 13.875 C1.02692681 9.28089502 1.02692681 9.28089502 -0.640625 5.1953125 C-2.92832778 3.51434828 -4.55977077 3.31227222 -7.375 3.0625 C-8.22964844 2.97355469 -9.08429687 2.88460938 -9.96484375 2.79296875 C-12.82979596 2.88801456 -14.13058056 3.16527891 -16.4375 4.875 C-20.08831417 10.11420941 -19.90368146 15.3527944 -20 21.5 C-20.58723404 40.83734643 -20.58723404 40.83734643 -24.4375 49.875 C-19.19414501 50.49709297 -13.94762152 51.03921575 -8.6875 51.5 C-7.08648437 51.64308594 -7.08648437 51.64308594 -5.453125 51.7890625 C-2.58174785 51.87088931 -0.21486435 51.56419782 2.5625 50.875 C2.51609375 50.15054688 2.4696875 49.42609375 2.421875 48.6796875 C2.1917962 42.51686241 2.24414139 38.67317623 6.5625 33.875 C10.53862447 30.38083002 14.12722484 29.4923655 19.44140625 29.609375 C23.11210903 30.06905785 25.89016926 31.40374269 28.5625 33.875 C30.52197835 36.74989122 32.10024342 39.72137752 33.5625 42.875 C36.22419042 41.4154226 36.22419042 41.4154226 38.5625 38.875 C38.84566711 36.90744956 38.84566711 36.90744956 38.6875 34.8125 C38.5625 30.875 38.5625 30.875 39.8125 28.8125 C41.5625 27.875 41.5625 27.875 43.75 28.1875 C44.348125 28.414375 44.94625 28.64125 45.5625 28.875 C45.376875 30.7003125 45.376875 30.7003125 45.1875 32.5625 C45.11122732 34.78017019 45.11122732 34.78017019 45.5625 36.875 C48.05455131 39.24356651 48.05455131 39.24356651 49.95703125 40.53515625 C52.90090467 42.99196546 54.4526967 46.24870004 55.5625 49.875 C55.3125 53.375 55.3125 53.375 54.5625 55.875 C60.5025 55.38 60.5025 55.38 66.5625 54.875 C66.5625 54.215 66.5625 53.555 66.5625 52.875 C67.2225 52.875 67.8825 52.875 68.5625 52.875 C68.28077807 56.04437172 68.07915615 58.22917981 66.0625 60.75 C60.79655361 63.11967588 55.05278752 62.03960644 49.5625 60.875 C48.5725 61.37 48.5725 61.37 47.5625 61.875 C45.42230579 62.07448548 43.27356865 62.18772265 41.125 62.25 C39.97128906 62.29898438 38.81757812 62.34796875 37.62890625 62.3984375 C34.5625 61.875 34.5625 61.875 32.58984375 59.5390625 C31.5625 56.875 31.5625 56.875 32.5625 53.875 C34.58956249 52.25335 36.01850501 51.84795627 38.60546875 51.9765625 C40.59836561 52.22347008 42.58168905 52.54486484 44.5625 52.875 C44.00937265 48.84507218 43.4066938 44.85477076 42.5625 40.875 C41.9025 40.875 41.2425 40.875 40.5625 40.875 C40.294375 41.49375 40.02625 42.1125 39.75 42.75 C38.5625 44.875 38.5625 44.875 35.5625 46.875 C34.5725 46.875 33.5825 46.875 32.5625 46.875 C32.52125 47.720625 32.48 48.56625 32.4375 49.4375 C31.26663688 54.03731939 29.07995111 56.74471564 25.5625 59.875 C20.89319369 62.31115982 16.55295827 62.27391574 11.5625 60.875 C5.99287975 57.73575949 5.99287975 57.73575949 4.5625 54.875 C4.23378906 55.35710938 3.90507813 55.83921875 3.56640625 56.3359375 C0.27370036 60.70836538 -2.46274846 63.05589984 -7.94140625 63.93359375 C-12.79228679 63.81972331 -17.0374527 61.76835369 -21.4375 59.875 C-23.90796708 58.85337828 -25.75607373 58.3040282 -28.4375 57.875 C-31.076538 59.5860076 -31.076538 59.5860076 -33.4375 61.875 C-38.20333157 64.09905473 -42.44058741 64.45513252 -47.4375 62.875 C-50.83812986 60.39537406 -52.20102053 59.01010144 -53.0625 54.875 C-52.23680566 50.91166717 -50.50308569 49.42965474 -47.4375 46.875 C-45.1251551 45.71882755 -43.69694273 45.70911296 -41.125 45.6875 C-39.98611328 45.66623047 -39.98611328 45.66623047 -38.82421875 45.64453125 C-36.07736194 45.90977602 -33.94538101 46.75200196 -31.4375 47.875 C-31.6540625 46.43833984 -31.6540625 46.43833984 -31.875 44.97265625 C-35.94249232 16.50743469 -35.94249232 16.50743469 -30.8359375 8.44921875 C-22.82099301 -0.57319083 -11.5931187 -3.79411157 0 0 Z M14.375 34.5 C11.05771465 38.8467877 11.46794651 43.21438004 11.875 48.5 C11.95363281 49.62664063 12.03226562 50.75328125 12.11328125 51.9140625 C12.37576669 55.05381963 12.37576669 55.05381963 14.5625 57.875 C17.01922892 58.54185938 17.01922892 58.54185938 19.5625 57.875 C22.65722036 53.92554735 22.94412139 50.80920363 22.875 45.875 C22.87113281 44.67875 22.86726563 43.4825 22.86328125 42.25 C22.57441559 39.00870216 22.04692648 36.75404781 20.5625 33.875 C17.728336 32.26897373 16.99086313 32.55678739 14.375 34.5 Z M-46.4375 53.875 C-45.93993908 56.63141416 -45.93993908 56.63141416 -44.4375 58.875 C-39.81742442 59.29500687 -37.12984035 58.72337684 -33.4375 55.875 C-33.1075 54.885 -32.7775 53.895 -32.4375 52.875 C-38.12925618 50.80527048 -41.60554337 49.73332289 -46.4375 53.875 Z M35.5625 55.875 C35.8925 56.865 36.2225 57.855 36.5625 58.875 C40.0275 58.38 40.0275 58.38 43.5625 57.875 C41.66494856 55.52526182 41.66494856 55.52526182 38.4375 55.75 C37.48875 55.79125 36.54 55.8325 35.5625 55.875 Z " fill="#050404" transform="translate(57.4375,3.125)"/>
<path d="M0 0 C0.66 0.66 1.32 1.32 2 2 C1.21625 2.70125 0.4325 3.4025 -0.375 4.125 C-5.71743797 9.97624158 -5.29136735 16.48120007 -5.4375 24 C-5.70525072 33.01427412 -6.59569377 41.27493903 -9 50 C0.40914849 53.21784732 8.08917722 54.39429826 18 53 C17.17182434 56.83533775 16.22740421 58.60013533 13 61 C6.67676967 62.77494185 2.69560566 61.47554747 -3.30078125 59.05859375 C-6.81715473 57.67952398 -10.32067591 56.83305451 -14 56 C-14.309375 56.928125 -14.309375 56.928125 -14.625 57.875 C-16 60 -16 60 -18.5625 61.3125 C-22.83061966 62.16612393 -26.78817687 62.19535552 -31 61 C-32.7421875 59.66796875 -32.7421875 59.66796875 -34 58 C-34.75336323 51.97309417 -34.75336323 51.97309417 -32.5 49.0625 C-28.79375776 47.48734705 -26.02128169 47.67570309 -22 48 C-21.34 48.66 -20.68 49.32 -20 50 C-22.97 51.32 -25.94 52.64 -29 54 C-28.67 55.32 -28.34 56.64 -28 58 C-26.5629191 58.05422947 -25.12524538 58.09289723 -23.6875 58.125 C-22.88699219 58.14820313 -22.08648437 58.17140625 -21.26171875 58.1953125 C-18.71611424 58.15817322 -18.71611424 58.15817322 -16 56 C-15.56613908 52.12202338 -15.56613908 52.12202338 -17.5 50.25 C-18.2425 49.63125 -18.2425 49.63125 -19 49 C-17.35 49 -15.7 49 -14 49 C-14.06058594 48.09121094 -14.12117188 47.18242188 -14.18359375 46.24609375 C-14.31340352 44.2989472 -14.44298609 42.35178112 -14.56762695 40.40429688 C-14.79406757 36.90201538 -15.04505263 33.40572518 -15.359375 29.91015625 C-15.46765625 28.61980469 -15.5759375 27.32945313 -15.6875 26 C-15.79449219 24.824375 -15.90148437 23.64875 -16.01171875 22.4375 C-15.98999681 16.06573172 -14.11710443 10.8375977 -10 6 C-6.77737853 3.7857145 -3.44161226 1.85216538 0 0 Z " fill="#221E1F" transform="translate(41,3)"/>
<path d="M0 0 C2.84780619 2.23206431 3.84997666 3.54992999 5 7 C5.85957907 17.14303302 3.37163389 28.29711252 -1.75 37.125 C-4.98423626 42.98455767 -5.01801926 49.47619326 -4 56 C-2.60576244 57.90485383 -2.60576244 57.90485383 -1 59 C-4.45029042 61.30019361 -5.94554358 61.43132515 -10 61 C-18.38368793 48.42446811 -14.50142208 24.22802597 -12.55078125 9.640625 C-11.08861831 2.63053886 -7.23127116 -0.88546177 0 0 Z M-3 3 C-5.24734928 6.59264833 -5.23200508 9.55142073 -5.1953125 13.734375 C-5.18886719 15.02988281 -5.18242187 16.32539063 -5.17578125 17.66015625 C-5.15907193 19.02344019 -5.14214206 20.38672144 -5.125 21.75 C-5.1149634 23.12889985 -5.10583873 24.50780665 -5.09765625 25.88671875 C-5.07408093 29.25798882 -5.0411727 32.62890636 -5 36 C0.31330371 28.03004444 1.86925267 16.22490693 0.5625 6.8125 C0.376875 5.884375 0.19125 4.95625 0 4 C-0.99 3.67 -1.98 3.34 -3 3 Z " fill="#211D1E" transform="translate(283,2)"/>
<path d="M0 0 C8.72541056 -0.38120726 14.19711499 -0.39832278 20.9375 5.625 C23.37411186 9.61218304 23.30603103 11.47260046 22.6875 15.94921875 C21.89678063 18.30789868 20.8712652 19.39823767 19 21 C17 20 15 19 13 18 C13.495 16.515 13.495 16.515 14 15 C14.66 15 15.32 15 16 15 C16.46442681 10.40589502 16.46442681 10.40589502 14.796875 6.3203125 C12.50917222 4.63934828 10.87772923 4.43727222 8.0625 4.1875 C7.20785156 4.09855469 6.35320313 4.00960938 5.47265625 3.91796875 C2.60770404 4.01301456 1.30691944 4.29027891 -1 6 C-4.65081417 11.23920941 -4.46618146 16.4777944 -4.5625 22.625 C-5.14973404 41.96234643 -5.14973404 41.96234643 -9 51 C-3.75664501 51.62209297 1.48987848 52.16421575 6.75 52.625 C8.35101563 52.76808594 8.35101563 52.76808594 9.984375 52.9140625 C12.85575215 52.99588931 15.22263565 52.68919782 18 52 C18 49.69 18 47.38 18 45 C18.33 45 18.66 45 19 45 C19.99 48.3 20.98 51.6 22 55 C21.01 55 20.02 55 19 55 C18.773125 55.7425 18.54625 56.485 18.3125 57.25 C16.68685866 60.65610566 15.20040104 62.00863935 12 64 C4.69700854 66.33695727 -1.36558093 62.90063254 -8.0859375 60.14453125 C-10.0582806 59.37129768 -10.0582806 59.37129768 -13 59 C-15.639038 60.7110076 -15.639038 60.7110076 -18 63 C-22.76583157 65.22405473 -27.00308741 65.58013252 -32 64 C-35.40062986 61.52037406 -36.76352053 60.13510144 -37.625 56 C-36.79930566 52.03666717 -35.06558569 50.55465474 -32 48 C-29.6876551 46.84382755 -28.25944273 46.83411296 -25.6875 46.8125 C-24.54861328 46.79123047 -24.54861328 46.79123047 -23.38671875 46.76953125 C-20.63986194 47.03477602 -18.50788101 47.87700196 -16 49 C-16.2165625 47.56333984 -16.2165625 47.56333984 -16.4375 46.09765625 C-20.50403196 17.63915548 -20.50403196 17.63915548 -15.40234375 9.578125 C-11.53511469 5.22614577 -7.017388 1.37608675 -1 1 C-3.6898528 3.90840334 -6.62748152 5.61075675 -10.0625 7.5234375 C-13.33814647 10.01979711 -14.74194161 12.77205773 -15.58203125 16.76953125 C-16.16927224 24.52310297 -15.63015825 31.62319248 -14.47265625 39.2734375 C-14.01331279 42.89503801 -13.91992341 46.35416002 -14 50 C-16.475 50.495 -16.475 50.495 -19 51 C-18.01 51.66 -17.02 52.32 -16 53 C-16.3125 55.375 -16.3125 55.375 -17 58 C-17.99 58.66 -18.98 59.32 -20 60 C-21.485 59.505 -21.485 59.505 -23 59 C-21.68 58.34 -20.36 57.68 -19 57 C-19 56.01 -19 55.02 -19 54 C-20.65 53.34 -22.3 52.68 -24 52 C-23.67 51.34 -23.34 50.68 -23 50 C-24.258125 49.95875 -25.51625 49.9175 -26.8125 49.875 C-27.87404297 49.84019531 -27.87404297 49.84019531 -28.95703125 49.8046875 C-31.31359719 49.86745538 -31.31359719 49.86745538 -34 52 C-34.25015873 55.58357241 -34.25015873 55.58357241 -34 59 C-33.34 59.33 -32.68 59.66 -32 60 C-32 60.66 -32 61.32 -32 62 C-25.83740688 62.37730162 -21.47265414 61.96435433 -16 59 C-15.67 58.34 -15.34 57.68 -15 57 C-10.93413559 56.58298827 -8.28864669 57.18746906 -4.6875 58.9375 C0.80299813 61.53923689 5.93691941 62.65171927 11.9375 61.375 C14.57799424 59.6146705 15.13166723 57.99969504 16 55 C15.45214844 55.10699219 14.90429688 55.21398438 14.33984375 55.32421875 C6.3759226 56.52851902 -1.34617497 55.41095489 -9 53 C-11 50 -11 50 -10.57421875 47.671875 C-10.28160156 46.70765625 -9.98898438 45.7434375 -9.6875 44.75 C-7.75450792 37.26282108 -7.55201484 29.9353211 -7.4675293 22.22363281 C-7.31794581 15.22241046 -6.76584783 9.0029205 -1.8125 3.625 C-1.214375 3.08875 -0.61625 2.5525 0 2 C0 1.34 0 0.68 0 0 Z " fill="#090607" transform="translate(42,2)"/>
<path d="M0 0 C0 14.52 0 29.04 0 44 C0.66 44 1.32 44 2 44 C1.34 45.32 0.68 46.64 0 48 C-1.70840281 46.36587557 -2.93453047 45.13093906 -4 43 C-4.33 44.32 -4.66 45.64 -5 47 C-8.76478978 41.10728556 -9.14416507 36.64417918 -9.09765625 29.734375 C-9.0962413 28.94097717 -9.09482635 28.14757935 -9.09336853 27.33013916 C-9.08778415 24.80338728 -9.07523454 22.27672496 -9.0625 19.75 C-9.05748298 18.03385545 -9.05292043 16.31770951 -9.04882812 14.6015625 C-9.03781984 10.40100731 -9.02056596 6.20051883 -9 2 C-5.62902617 0.50178941 -3.79557881 0 0 0 Z " fill="#221E1F" transform="translate(169,16)"/>
<path d="M0 0 C3.0625 2.125 3.0625 2.125 5 5 C5.16624878 8.98997064 4.31073018 10.59787859 1.875 13.75 C-1.50903016 16.39837143 -3.8459111 17.10402004 -8 18 C-8.6878236 20.35367713 -8.6878236 20.35367713 -9 23 C-8.34 23.99 -7.68 24.98 -7 26 C-4.79274927 26.36362818 -4.79274927 26.36362818 -2.375 26.1875 C-1.55773437 26.16042969 -0.74046875 26.13335937 0.1015625 26.10546875 C1.04128906 26.05326172 1.04128906 26.05326172 2 26 C-0.88254165 29.15706942 -3.01170536 29.88811759 -7.3125 30.375 C-11.08568799 29.99128597 -13.01112175 29.23526545 -15.7734375 26.61328125 C-18.8143705 22.61358275 -19.23728724 17.8351086 -19 12.9375 C-18.23301523 8.25242437 -15.52368707 5.05331198 -12 2 C-8.15782155 -0.29762272 -4.39779907 -0.84305634 0 0 Z M-6 3 C-8.41685712 7.22949995 -9.34833144 10.12335991 -9 15 C-4.29157376 12.88673474 -4.29157376 12.88673474 -1 9 C-0.83286431 6.37468476 -0.83286431 6.37468476 -1 4 C-2.65 3.67 -4.3 3.34 -6 3 Z " fill="#050404" transform="translate(302,33)"/>
<path d="M0 0 C2.2477975 2.05233685 3.0022242 3.00667261 4 6 C5.9466718 7.84399021 8.00800719 9.49469912 10.08984375 11.18359375 C14.00556881 14.90713598 14.39390474 18.74717443 15 24 C16.41623216 24.05447047 17.83308191 24.09300508 19.25 24.125 C20.43335938 24.15980469 20.43335938 24.15980469 21.640625 24.1953125 C24.20731941 23.9828378 25.7916067 23.28654105 28 22 C27.67357189 24.93785297 27.1175594 26.81876259 25.5 29.3125 C21.7715126 31.82922899 18.37141493 31.42228337 14 31 C12.33195323 30.67364302 10.66475686 30.34274406 9 30 C8.01 30.33 7.02 30.66 6 31 C4.43881572 31.06740865 2.8749748 31.08514456 1.3125 31.0625 C0.10013672 31.04896484 0.10013672 31.04896484 -1.13671875 31.03515625 C-1.75160156 31.02355469 -2.36648438 31.01195313 -3 31 C0 29 0 29 2 29 C2 27.35 2 25.7 2 24 C2.99 23.67 3.98 23.34 5 23 C4.57316761 21.41375765 4.13303842 19.8310902 3.6875 18.25 C3.44386719 17.36828125 3.20023437 16.4865625 2.94921875 15.578125 C1.97874669 12.94227495 0.78994356 11.14592674 -1 9 C-0.67 8.34 -0.34 7.68 0 7 C-0.32670903 4.99890722 -0.65977214 2.99883869 -1 1 C-0.67 0.67 -0.34 0.34 0 0 Z " fill="#080606" transform="translate(316,34)"/>
<path d="M0 0 C3.06425849 2.96541144 3.83043282 5.76082062 4 10 C2.8125 13.3125 2.8125 13.3125 1 16 C-1.1875 16.875 -1.1875 16.875 -3 17 C-4.32 15.35 -5.64 13.7 -7 12 C-6.319375 11.443125 -5.63875 10.88625 -4.9375 10.3125 C-2.77323952 8.17151489 -2.77323952 8.17151489 -2.75 5.4375 C-3.89452894 2.64914541 -3.89452894 2.64914541 -7.375 1.125 C-13.34878908 -0.73779444 -19.53480457 -0.47417636 -25.3046875 1.98046875 C-34.05119392 7.07984702 -37.83825072 14.40658762 -40.54150391 23.90209961 C-41.30092936 27.37693608 -41.1431373 30.89770371 -41.125 34.4375 C-41.12886719 35.18837891 -41.13273438 35.93925781 -41.13671875 36.71289062 C-41.12986606 40.60864317 -40.95301756 44.1954934 -40 48 C-40.66 48 -41.32 48 -42 48 C-45.63516118 35.95852859 -44.47595565 24.04472243 -39.125 12.625 C-36.34772962 7.52627079 -32.87397715 3.2493181 -28 0 C-28.54269531 0.30035156 -29.08539063 0.60070312 -29.64453125 0.91015625 C-30.35996094 1.29042969 -31.07539063 1.67070313 -31.8125 2.0625 C-32.52019531 2.44535156 -33.22789062 2.82820312 -33.95703125 3.22265625 C-36 4 -36 4 -39 3 C-37.08588443 2.01585567 -35.1686033 1.03786651 -33.25 0.0625 C-32.18265625 -0.48277344 -31.1153125 -1.02804688 -30.015625 -1.58984375 C-20.74130815 -5.92666808 -8.47939591 -5.87035102 0 0 Z " fill="#070405" transform="translate(179,6)"/>
<path d="M0 0 C2.84780619 2.23206431 3.84997666 3.54992999 5 7 C5.85957907 17.14303302 3.37163389 28.29711252 -1.75 37.125 C-5.05316408 43.06258941 -4.62243234 49.38443339 -4 56 C-3.67 56.66 -3.34 57.32 -3 58 C-3.99 57.67 -4.98 57.34 -6 57 C-7.75021631 53.49956737 -7.26948691 49.54434036 -7.3125 45.6875 C-7.35600586 44.40456055 -7.35600586 44.40456055 -7.40039062 43.09570312 C-7.45540379 37.63247313 -6.90348866 35.08901568 -3 31 C0.14187642 22.79707142 0.71047567 12.55237836 -1 4 C-1.66 4 -2.32 4 -3 4 C-4.05836661 7.17509982 -4.20243789 9.64282383 -4.31640625 12.98046875 C-4.35830078 14.14384766 -4.40019531 15.30722656 -4.44335938 16.50585938 C-4.48267578 17.72080078 -4.52199219 18.93574219 -4.5625 20.1875 C-4.60568359 21.41404297 -4.64886719 22.64058594 -4.69335938 23.90429688 C-4.7995309 26.93608381 -4.90157952 29.96795315 -5 33 C-5.33 33 -5.66 33 -6 33 C-6.33 23.43 -6.66 13.86 -7 4 C-8.98 4.99 -8.98 4.99 -11 6 C-8.67951747 0.64504033 -5.76584878 -0.7060223 0 0 Z " fill="#080607" transform="translate(283,2)"/>
<path d="M0 0 C2.625 0.25 2.625 0.25 4.375 1.5 C7.7442828 6.21699592 7.00941733 12.88640873 7.25 18.4375 C7.3015625 19.46037109 7.353125 20.48324219 7.40625 21.53710938 C7.45007813 22.50841797 7.49390625 23.47972656 7.5390625 24.48046875 C7.5798291 25.37145264 7.6205957 26.26243652 7.66259766 27.18041992 C7.625 29.25 7.625 29.25 6.625 30.25 C2.22862863 30.71277593 2.22862863 30.71277593 -0.00927734 28.99707031 C-1.67709944 26.86354602 -1.77926547 25.73068166 -1.8515625 23.046875 C-1.8825 22.23089844 -1.9134375 21.41492188 -1.9453125 20.57421875 C-1.96335938 19.72472656 -1.98140625 18.87523438 -2 18 C-2.05168379 16.32802945 -2.10632468 14.65614744 -2.1640625 12.984375 C-2.19016602 12.18322266 -2.21626953 11.38207031 -2.24316406 10.55664062 C-2.36623231 8.40340218 -2.62071469 6.33141977 -2.9609375 4.203125 C-3.16589844 2.74132813 -3.16589844 2.74132813 -3.375 1.25 C-2.375 0.25 -2.375 0.25 0 0 Z " fill="#1B1819" transform="translate(200.375,32.75)"/>
<path d="M0 0 C0.19491452 1.45736087 0.38069358 2.91594593 0.5625 4.375 C0.66691406 5.18710937 0.77132812 5.99921875 0.87890625 6.8359375 C1 9 1 9 0 11 C-0.2322646 13.71262116 -0.41936235 16.40773126 -0.5625 19.125 C-0.60568359 19.87910156 -0.64886719 20.63320313 -0.69335938 21.41015625 C-0.7994832 23.27321888 -0.90025001 25.13658524 -1 27 C-2.98 27.66 -4.96 28.32 -7 29 C-8.16656743 19.52388303 -7.78118882 10.47041213 -7 1 C-2.25 0 -2.25 0 0 0 Z " fill="#211D1E" transform="translate(189,35)"/>
<path d="M0 0 C-0.165 0.886875 -0.33 1.77375 -0.5 2.6875 C-1.00665062 6.33091404 -1.166536 9.94841098 -1.25 13.625 C-1.27578125 14.71039063 -1.3015625 15.79578125 -1.328125 16.9140625 C-0.96162901 20.36087005 0.10007855 22.15011783 2 25 C2 25.66 2 26.32 2 27 C-0.75 27.3125 -0.75 27.3125 -4 27 C-7.54741668 24.12371621 -8.26905816 21.43050605 -8.75 17.0625 C-8.8449654 15.37561463 -8.92932365 13.68807747 -9 12 C-9.12375 10.9275 -9.2475 9.855 -9.375 8.75 C-8.62948429 3.28288476 -5.65076029 0 0 0 Z " fill="#1E1B1C" transform="translate(221,36)"/>
<path d="M0 0 C0.99 0 1.98 0 3 0 C2.96519531 0.94101562 2.93039062 1.88203125 2.89453125 2.8515625 C2.86746094 4.09679688 2.84039062 5.34203125 2.8125 6.625 C2.77769531 7.85476562 2.74289062 9.08453125 2.70703125 10.3515625 C3.0212053 14.26407664 4.03093467 16.64070218 6 20 C8.97 20 11.94 20 15 20 C11.64437864 23.35562136 10.29973655 23.85286001 5.6875 24.375 C2.01705674 24.00173458 -0.04963586 23.37228383 -2.765625 20.82421875 C-5.35773337 16.99347631 -5.9249636 12.54993449 -6 8 C-4.75 4.8125 -4.75 4.8125 -3 3 C-2.34 3 -1.68 3 -1 3 C-0.67 2.01 -0.34 1.02 0 0 Z " fill="#201D1E" transform="translate(289,39)"/>
<path d="M0 0 C0.33 0 0.66 0 1 0 C1.17835515 4.54805635 0.99785435 7.8794254 -1 12 C0.9490625 11.7215625 0.9490625 11.7215625 2.9375 11.4375 C7.19471563 10.94498536 11.02530063 11.19830982 15.25 11.84375 C16.11625 11.92109375 16.11625 11.92109375 17 12 C17.33 11.67 17.66 11.34 18 11 C15.03 10.34 12.06 9.68 9 9 C9 8.67 9 8.34 9 8 C14.94 7.505 14.94 7.505 21 7 C21 6.34 21 5.68 21 5 C21.66 5 22.32 5 23 5 C22.71827807 8.16937172 22.51665615 10.35417981 20.5 12.875 C15.23405361 15.24467588 9.49028752 14.16460644 4 13 C3.01 13.495 3.01 13.495 2 14 C-0.14019421 14.19948548 -2.28893135 14.31272265 -4.4375 14.375 C-5.59121094 14.42398438 -6.74492188 14.47296875 -7.93359375 14.5234375 C-11 14 -11 14 -12.97265625 11.6640625 C-14 9 -14 9 -13 6 C-10.97293751 4.37835 -9.54399499 3.97295627 -6.95703125 4.1015625 C-4.96413439 4.34847008 -2.98081095 4.66986484 -1 5 C-0.67 3.35 -0.34 1.7 0 0 Z M-10 8 C-9.67 8.99 -9.34 9.98 -9 11 C-5.535 10.505 -5.535 10.505 -2 10 C-3.89755144 7.65026182 -3.89755144 7.65026182 -7.125 7.875 C-8.07375 7.91625 -9.0225 7.9575 -10 8 Z " fill="#080707" transform="translate(103,51)"/>
<path d="M0 0 C1.625 1.125 1.625 1.125 2.625 3.125 C3.0094386 6.58494738 2.87855473 8.61789054 1.3125 11.75 C-2.68926884 15.28644688 -7.32737146 16.5671974 -12.375 18.125 C-13.5813366 12.89754141 -13.13112577 8.35971686 -12.375 3.125 C-13.695 3.455 -15.015 3.785 -16.375 4.125 C-11.70572664 -0.86629221 -6.70590112 -2.47059515 0 0 Z M-7.375 2.125 C-10.91290403 5.81672595 -10.96615883 9.21890595 -11.375 14.125 C-6.72766458 12.52374465 -6.72766458 12.52374465 -3.375 9.125 C-3.12451364 5.99950983 -3.12451364 5.99950983 -3.375 3.125 C-4.695 2.795 -6.015 2.465 -7.375 2.125 Z " fill="#080607" transform="translate(263.375,33.875)"/>
<path d="M0 0 C1.67542976 0.28604898 3.34385343 0.61781233 5 1 C5.0990914 5.05664947 5.17157106 9.1128277 5.21972656 13.17041016 C5.23980642 14.5497668 5.26707666 15.92903869 5.30175781 17.30810547 C5.35042817 19.29356979 5.37086418 21.27966254 5.390625 23.265625 C5.41157227 24.45961914 5.43251953 25.65361328 5.45410156 26.88378906 C4.91626463 30.57462274 3.86451808 31.7103679 1 34 C1.03480469 32.84371094 1.03480469 32.84371094 1.0703125 31.6640625 C1.08835938 30.66117188 1.10640625 29.65828125 1.125 28.625 C1.14820313 27.62726563 1.17140625 26.62953125 1.1953125 25.6015625 C1.27216848 22.83737827 1.27216848 22.83737827 -1 21 C-1.24291992 18.95288086 -1.24291992 18.95288086 -1.23046875 16.46484375 C-1.22853516 15.57345703 -1.22660156 14.68207031 -1.22460938 13.76367188 C-1.21236328 12.83103516 -1.20011719 11.89839844 -1.1875 10.9375 C-1.18685547 10.00099609 -1.18621094 9.06449219 -1.18554688 8.09960938 C-1.14019224 1.14019224 -1.14019224 1.14019224 0 0 Z " fill="#211E1F" transform="translate(232,37)"/>
<path d="M0 0 C2.9610673 0.32900748 4.28326527 1.21738963 6.6875 3.0625 C9.73369064 6.93198541 9.84021979 9.12670356 10 14 C9.67 14.66 9.34 15.32 9 16 C14.94 16.99 14.94 16.99 21 18 C20.34 18.99 19.68 19.98 19 21 C17.95199219 20.9278125 16.90398437 20.855625 15.82421875 20.78125 C14.4453161 20.6874471 13.06640965 20.59370001 11.6875 20.5 C10.99720703 20.45230469 10.30691406 20.40460937 9.59570312 20.35546875 C6.72337641 20.16120511 3.87986212 20 1 20 C0.67 18.35 0.34 16.7 0 15 C0.99 15 1.98 15 3 15 C2.5547115 9.72684667 1.91626837 4.98229776 0 0 Z " fill="#201C1D" transform="translate(101,43)"/>
<path d="M0 0 C5.75889634 -0.34553378 10.06169381 -0.36702695 15 3 C19.8613044 7.34414436 19.8613044 7.34414436 20.19140625 11.28515625 C19.84500284 15.63287247 19.40316525 18.08696452 16 21 C14 20 12 19 10 18 C10.33 17.01 10.66 16.02 11 15 C11.66 15 12.32 15 13 15 C13.46670123 10.41972502 13.46670123 10.41972502 11.8125 6.34375 C9.51102262 4.63748229 7.62638351 4.28757124 4.8125 3.8125 C3.46091797 3.57466797 3.46091797 3.57466797 2.08203125 3.33203125 C1.39496094 3.22246094 0.70789062 3.11289063 0 3 C0 2.01 0 1.02 0 0 Z " fill="#070606" transform="translate(45,2)"/>
<path d="M0 0 C-0.22816406 0.65484375 -0.45632812 1.3096875 -0.69140625 1.984375 C-2.95848372 9.18209182 -3.68485875 15.57331998 -2 23 C-0.18042734 26.18738744 -0.18042734 26.18738744 2 28 C-1.82429111 27.46884846 -4.24362351 26.75637649 -7 24 C-9.40431072 19.36947565 -10.47190715 15.17530994 -11 10 C-10.34 10 -9.68 10 -9 10 C-8.95875 9.278125 -8.9175 8.55625 -8.875 7.8125 C-7.66642745 3.92780252 -4.41975659 0 0 0 Z " fill="#211D1E" transform="translate(71,35)"/>
<path d="M0 0 C3.95046288 1.31682096 6.45459858 2.66464641 9 6 C11.5725478 12.59914436 10.7619596 16.5851261 8 23 C7.34 23 6.68 23 6 23 C5.67 23.99 5.34 24.98 5 26 C3.125 27.25 3.125 27.25 1 28 C0.01 27.67 -0.98 27.34 -2 27 C-1.360625 26.4225 -0.72125 25.845 -0.0625 25.25 C3.56502047 21.29270494 3.26507497 16.84886423 3.234375 11.68359375 C2.87176104 7.53166394 1.55918374 3.84227422 0 0 Z " fill="#211E1F" transform="translate(78,35)"/>
<path d="M0 0 C4.875 1.75 4.875 1.75 6 4 C6.43736501 6.9913607 6.69907449 9.99074485 7 13 C10.63 13.66 14.26 14.32 18 15 C15 18 15 18 12.84375 18.109375 C12.0703125 17.99078125 11.296875 17.8721875 10.5 17.75 C9.33984375 17.58757813 9.33984375 17.58757813 8.15625 17.421875 C6 17 6 17 3 16 C0.36195411 16.39397335 0.36195411 16.39397335 -2 17 C-1.84402344 16.41992188 -1.68804687 15.83984375 -1.52734375 15.2421875 C-0.32443496 10.41461976 0.08437904 6.93994897 -1 2 C-0.67 1.34 -0.34 0.68 0 0 Z " fill="#211D1E" transform="translate(322,46)"/>
<path d="M0 0 C0 3 0 3 -1.390625 4.65625 C-2.00421875 5.2646875 -2.6178125 5.873125 -3.25 6.5 C-10.86451678 14.83897486 -12.31769449 25.79514456 -12.21875 36.69140625 C-11.93240588 41.02236104 -11.29889328 45.25143148 -9 49 C-6.83658156 50.35000718 -5.5568772 51 -3 51 C-3 52.32 -3 53.64 -3 55 C-7.470198 53.63410617 -9.48716779 51.93677047 -12 48 C-16.80266201 37.6147565 -15.49290819 27.61900202 -12 17 C-9.2642391 9.97520735 -5.68055061 4.94387978 0 0 Z " fill="#080606" transform="translate(139,10)"/>
<path d="M0 0 C0.68449219 0.50144531 1.36898437 1.00289062 2.07421875 1.51953125 C5.6976677 3.35302545 7.81031342 3.1321874 11.8125 2.6875 C12.97394531 2.56761719 14.13539063 2.44773438 15.33203125 2.32421875 C16.65267578 2.16373047 16.65267578 2.16373047 18 2 C12.59415993 11.2317498 12.59415993 11.2317498 8.07421875 12.5703125 C4.19474312 13.14017898 0.80919041 13.0713348 -3 12 C-2.67 11.34 -2.34 10.68 -2 10 C0.5625 9.375 0.5625 9.375 3 9 C3 7.68 3 6.36 3 5 C2.01 4.34 1.02 3.68 0 3 C0 2.01 0 1.02 0 0 Z " fill="#151313" transform="translate(139,54)"/>
<path d="M0 0 C0.66 0.66 1.32 1.32 2 2 C-0.97 3.32 -3.94 4.64 -7 6 C-6.67 7.32 -6.34 8.64 -6 10 C-3.03 10.33 -0.06 10.66 3 11 C3 11.66 3 12.32 3 13 C-6.68581477 14.56154748 -6.68581477 14.56154748 -11 12 C-12.54163175 8.9167365 -12.29747535 6.39121901 -12 3 C-8.8687752 -1.0444987 -4.68875683 -0.37812555 0 0 Z " fill="#121011" transform="translate(19,51)"/>
<path d="M0 0 C2.2477975 2.05233685 3.0022242 3.00667261 4 6 C4.99 6.66 5.98 7.32 7 8 C8.1875 10.625 8.1875 10.625 9 13 C8.01 13.33 7.02 13.66 6 14 C6 15.98 6 17.96 6 20 C6.66 20.33 7.32 20.66 8 21 C7.34 21 6.68 21 6 21 C5.34 23.97 4.68 26.94 4 30 C1.69 30.33 -0.62 30.66 -3 31 C0 29 0 29 2 29 C2 27.35 2 25.7 2 24 C2.99 23.67 3.98 23.34 5 23 C4.57316761 21.41375765 4.13303842 19.8310902 3.6875 18.25 C3.44386719 17.36828125 3.20023437 16.4865625 2.94921875 15.578125 C1.97874669 12.94227495 0.78994356 11.14592674 -1 9 C-0.67 8.34 -0.34 7.68 0 7 C-0.32670903 4.99890722 -0.65977214 2.99883869 -1 1 C-0.67 0.67 -0.34 0.34 0 0 Z " fill="#0F0C0D" transform="translate(316,34)"/>
<path d="M0 0 C0.33 14.85 0.66 29.7 1 45 C0.01 44.67 -0.98 44.34 -2 44 C-2 30.14 -2 16.28 -2 2 C-3.98 2.33 -5.96 2.66 -8 3 C-8.33 2.34 -8.66 1.68 -9 1 C-5.846632 0.29925156 -3.27275026 0 0 0 Z " fill="#020101" transform="translate(171,14)"/>
<path d="M0 0 C0.598125 0.226875 1.19625 0.45375 1.8125 0.6875 C1.626875 2.5128125 1.626875 2.5128125 1.4375 4.375 C1.36122732 6.59267019 1.36122732 6.59267019 1.8125 8.6875 C4.30455131 11.05606651 4.30455131 11.05606651 6.20703125 12.34765625 C9.15090467 14.80446546 10.7026967 18.06120004 11.8125 21.6875 C11.5625 25.1875 11.5625 25.1875 10.8125 27.6875 C10.1525 27.6875 9.4925 27.6875 8.8125 27.6875 C8.874375 26.65625 8.93625 25.625 9 24.5625 C8.79829384 20.3939061 8.01411656 18.19377823 5.8125 14.6875 C2.94295871 12.56730209 2.94295871 12.56730209 -0.25 11.75 C-3.1875 10.6875 -3.1875 10.6875 -5.1875 7.6875 C-5.55361439 4.75858487 -5.59004958 3.29132437 -3.9375 0.8125 C-2.1875 -0.3125 -2.1875 -0.3125 0 0 Z " fill="#080708" transform="translate(101.1875,31.3125)"/>
<path d="M0 0 C1.32 0.33 2.64 0.66 4 1 C3.01 1.33 2.02 1.66 1 2 C1.06926486 6.98094685 1.15741551 11.96108505 1.26245117 16.94140625 C1.29553509 18.63272061 1.32361759 20.32414099 1.34643555 22.015625 C1.38028836 24.45878939 1.43261508 26.90099655 1.48828125 29.34375 C1.49467117 30.08991577 1.5010611 30.83608154 1.50764465 31.6048584 C1.65564806 36.98945646 2.99068986 41.00897118 5 46 C5 46.99 5 47.98 5 49 C1 44.375 1 44.375 1 41 C0.34 41 -0.32 41 -1 41 C-1.226875 41.5775 -1.45375 42.155 -1.6875 42.75 C-3.33038023 45.5663661 -5.39533227 47.08077114 -8 49 C-8.66 48.67 -9.32 48.34 -10 48 C-8.47005208 46.76302083 -6.94010417 45.52604167 -5.41015625 44.2890625 C-3.86733563 43.0333609 -3.86733563 43.0333609 -3 41 C-3.66 40.34 -4.32 39.68 -5 39 C-4.525625 38.566875 -4.05125 38.13375 -3.5625 37.6875 C-0.34367888 34.21117319 -0.78922348 29.95270475 -0.68359375 25.48828125 C-0.66281265 24.76005661 -0.64203156 24.03183197 -0.62062073 23.28153992 C-0.55531254 20.95862125 -0.49632763 18.63559094 -0.4375 16.3125 C-0.39429695 14.73631665 -0.35068208 13.16014452 -0.30664062 11.58398438 C-0.1996504 7.72277025 -0.09833039 3.86144397 0 0 Z " fill="#0A0808" transform="translate(159,16)"/>
<path d="M0 0 C2.375 0.1875 2.375 0.1875 5 1 C6.81747749 3.89144146 7.02103457 5.65643535 6.8125 9.0625 C5.99080257 12.03325223 5.02474617 13.7111565 3 16 C0.11424181 15.60196439 -0.82189513 15.20990931 -2.75 12.9375 C-3.1625 12.298125 -3.575 11.65875 -4 11 C-3.34 10.484375 -2.68 9.96875 -2 9.4375 C0.65637543 6.20004245 0.31342132 4.07447719 0 0 Z " fill="#080607" transform="translate(176,7)"/>
<path d="M0 0 C2.97 0.495 2.97 0.495 6 1 C5.01 1.33 4.02 1.66 3 2 C3 2.66 3 3.32 3 4 C2.1028125 4.309375 2.1028125 4.309375 1.1875 4.625 C-1.99924285 6.6280955 -2.62627328 8.47958613 -4 12 C-4.47313222 15.62090239 -4.55662247 19.22657055 -4.625 22.875 C-4.67666387 24.7891465 -4.73130202 26.70321527 -4.7890625 28.6171875 C-4.83015137 29.98182129 -4.83015137 29.98182129 -4.87207031 31.37402344 C-5.04655785 34.95567989 -5.48833376 38.45188823 -6 42 C-6.66 41.67 -7.32 41.34 -8 41 C-7.9185562 36.66593013 -7.80575957 32.33320928 -7.6875 28 C-7.66494141 26.77925781 -7.64238281 25.55851562 -7.61914062 24.30078125 C-7.17763089 9.44999925 -7.17763089 9.44999925 -1.8125 3.625 C-1.214375 3.08875 -0.61625 2.5525 0 2 C0 1.34 0 0.68 0 0 Z " fill="#050304" transform="translate(42,2)"/>
<path d="M0 0 C1.32 0.33 2.64 0.66 4 1 C6.15634036 1 7.92446352 0.5534764 10 0 C11.35439668 2.70879335 11.06501451 5.00933268 11 8 C9.68 8.33 8.36 8.66 7 9 C6.67 8.34 6.34 7.68 6 7 C5.34 7 4.68 7 4 7 C4 7.66 4 8.32 4 9 C2.68 9 1.36 9 0 9 C0 6.03 0 3.06 0 0 Z M3 5 C4 7 4 7 4 7 Z " fill="#040404" transform="translate(242,70)"/>
<path d="M0 0 C1.625 1.1875 1.625 1.1875 2.625 4.1875 C1.635 4.1875 0.645 4.1875 -0.375 4.1875 C-0.045 3.5275 0.285 2.8675 0.625 2.1875 C-1.67283429 4.07604054 -1.67283429 4.07604054 -1.75 7.1875 C-2.375 10.1875 -2.375 10.1875 -4.4375 11.5625 C-5.076875 11.76875 -5.71625 11.975 -6.375 12.1875 C-5.715 11.1975 -5.055 10.2075 -4.375 9.1875 C-4.20800768 6.06228167 -4.20800768 6.06228167 -4.375 3.1875 C-7.24224686 3.76094937 -8.2364515 4.0489515 -10.375 6.1875 C-11.035 4.2075 -11.695 2.2275 -12.375 0.1875 C-8.16498784 -1.21583739 -4.2395326 -1.45036642 0 0 Z " fill="#040304" transform="translate(263.375,33.8125)"/>
<path d="M0 0 C1.32 0.33 2.64 0.66 4 1 C6.68149993 0.61432869 6.68149993 0.61432869 9 0 C8.67 2.97 8.34 5.94 8 9 C6.68 8.34 5.36 7.68 4 7 C3.67 7.66 3.34 8.32 3 9 C2.01 9 1.02 9 0 9 C0 6.03 0 3.06 0 0 Z M5 2 C6 4 6 4 6 4 Z " fill="#040404" transform="translate(321,70)"/>
<path d="M0 0 C0.99 0.33 1.98 0.66 3 1 C2.67 1.99 2.34 2.98 2 4 C2.99 4 3.98 4 5 4 C5.33 3.34 5.66 2.68 6 2 C5.34 2 4.68 2 4 2 C4.33 1.34 4.66 0.68 5 0 C5.66 0.33 6.32 0.66 7 1 C7 1.66 7 2.32 7 3 C8.65 2.67 10.3 2.34 12 2 C12.33 2.99 12.66 3.98 13 5 C8.51925805 8.36055646 5.39449293 8.27429625 0 8 C-0.38063221 5.6739143 -0.71269945 3.33944736 -1 1 C-0.67 0.67 -0.34 0.34 0 0 Z " fill="#151314" transform="translate(165,58)"/>
<path d="M0 0 C0.99 0.66 1.98 1.32 3 2 C3.40843923 4.71203652 3.13336867 7.2437142 3 10 C3.66 10 4.32 10 5 10 C5.33 11.32 5.66 12.64 6 14 C5.34 14 4.68 14 4 14 C3.7525 14.61875 3.505 15.2375 3.25 15.875 C2 18 2 18 -2 20 C-1.34 16.37 -0.68 12.74 0 9 C-0.66 8.67 -1.32 8.34 -2 8 C-1.34 5.36 -0.68 2.72 0 0 Z " fill="#161213" transform="translate(231,58)"/>
<path d="M0 0 C0.19218929 4.37781384 0.37092139 8.75590559 0.53710938 13.13476562 C0.59556854 14.62482488 0.65772629 16.11474376 0.72363281 17.60449219 C0.81764056 19.74388064 0.89840682 21.88341868 0.9765625 24.0234375 C1.02893066 25.31169434 1.08129883 26.59995117 1.13525391 27.92724609 C1 31 1 31 -1 33 C-1.33 24.09 -1.66 15.18 -2 6 C-2.66 6.66 -3.32 7.32 -4 8 C-4.99 8 -5.98 8 -7 8 C-5.9363919 4.72054168 -4.1945074 0 0 0 Z " fill="#151314" transform="translate(277,5)"/>
<path d="M0 0 C1.65 0.33 3.3 0.66 5 1 C5.66 3.64 6.32 6.28 7 9 C5.68 9 4.36 9 3 9 C3 8.34 3 7.68 3 7 C2.34 7 1.68 7 1 7 C1 7.66 1 8.32 1 9 C-0.32 8.67 -1.64 8.34 -3 8 C-2.01 5.36 -1.02 2.72 0 0 Z " fill="#030303" transform="translate(260,70)"/>
<path d="M0 0 C2.31 0 4.62 0 7 0 C7 2.97 7 5.94 7 9 C4.69 9 2.38 9 0 9 C0 6.03 0 3.06 0 0 Z " fill="#020202" transform="translate(335,70)"/>
<path d="M0 0 C1.65 0 3.3 0 5 0 C5.66 2.97 6.32 5.94 7 9 C5.68 9 4.36 9 3 9 C3 8.34 3 7.68 3 7 C2.34 7 1.68 7 1 7 C1 7.66 1 8.32 1 9 C0.01 9 -0.98 9 -2 9 C-1.34 6.03 -0.68 3.06 0 0 Z " fill="#030303" transform="translate(287,70)"/>
<path d="M0 0 C1.1446875 0.3403125 1.1446875 0.3403125 2.3125 0.6875 C2.3125 1.3475 2.3125 2.0075 2.3125 2.6875 C0.9925 2.3575 -0.3275 2.0275 -1.6875 1.6875 C-1.6875 3.3375 -1.6875 4.9875 -1.6875 6.6875 C-1.3575 5.6975 -1.0275 4.7075 -0.6875 3.6875 C0.6325 3.6875 1.9525 3.6875 3.3125 3.6875 C2.9825 5.3375 2.6525 6.9875 2.3125 8.6875 C0.0025 8.3575 -2.3075 8.0275 -4.6875 7.6875 C-5.375 5.375 -5.375 5.375 -5.6875 2.6875 C-4.0011022 -0.12316299 -3.27764429 -0.38112143 0 0 Z " fill="#050505" transform="translate(276.6875,70.3125)"/>
<path d="M0 0 C0.05786668 3.79160297 0.09355054 7.58309311 0.125 11.375 C0.14175781 12.45523438 0.15851563 13.53546875 0.17578125 14.6484375 C0.18222656 15.6796875 0.18867188 16.7109375 0.1953125 17.7734375 C0.20578613 18.72653809 0.21625977 19.67963867 0.22705078 20.66162109 C0 23 0 23 -2 25 C-2 18.4 -2 11.8 -2 5 C-3.65 5 -5.3 5 -7 5 C-7.66 3.68 -8.32 2.36 -9 1 C-8.05125 1.020625 -7.1025 1.04125 -6.125 1.0625 C-3.66231667 1.01324633 -2.19420831 0 0 0 Z " fill="#0E0C0D" transform="translate(238,33)"/>
<path d="M0 0 C3.84772066 1.51160454 5.93802845 3.41064212 8 7 C8.23887484 10.99764063 8.15671046 14.68384324 5.44140625 17.7734375 C4.72791016 18.38058594 4.72791016 18.38058594 4 19 C2 18 -0 17 -2 16 C-1.67 15.01 -1.34 14.02 -1 13 C-0.34 13 0.32 13 1 13 C1.33 14.32 1.66 15.64 2 17 C5.15241237 15.39340087 5.15241237 15.39340087 5.46875 12.9765625 C5.5009537 10.55323391 5.47521317 8.38030881 5 6 C2.64167228 3.52791204 2.64167228 3.52791204 0 2 C0 1.34 0 0.68 0 0 Z " fill="#040202" transform="translate(57,4)"/>
<path d="M0 0 C2.31 0 4.62 0 7 0 C6.34 1.98 5.68 3.96 5 6 C5.66 6 6.32 6 7 6 C7 6.99 7 7.98 7 9 C4.69 9 2.38 9 0 9 C0.66 7.02 1.32 5.04 2 3 C1.34 3 0.68 3 0 3 C0 2.01 0 1.02 0 0 Z " fill="#030303" transform="translate(299,70)"/>
<path d="M0 0 C0.66 0.33 1.32 0.66 2 1 C1.67 3.31 1.34 5.62 1 8 C2.90401138 9.90401138 4.33425686 10.93520439 7.046875 11.19921875 C9.03233273 11.1886578 11.0169914 11.09915043 13 11 C9.74139091 13.17240606 9.17949197 13.23564158 5.5 12.8125 C4.7265625 12.73644531 3.953125 12.66039063 3.15625 12.58203125 C0.58269788 11.88735867 -0.42022785 11.13294158 -2 9 C-2.3125 5.4375 -2.3125 5.4375 -2 2 C-1.34 1.34 -0.68 0.68 0 0 Z " fill="#201D1E" transform="translate(9,52)"/>
<path d="M0 0 C1.32 0.33 2.64 0.66 4 1 C4.2236337 2.41433206 4.42826476 3.83167618 4.625 5.25 C4.74101562 6.03890625 4.85703125 6.8278125 4.9765625 7.640625 C5.00319395 10.32152459 4.36592084 11.72694089 3 14 C2.01 13.67 1.02 13.34 0 13 C0.66 9.7 1.32 6.4 2 3 C1.34 3 0.68 3 0 3 C0 2.01 0 1.02 0 0 Z " fill="#191617" transform="translate(176,7)"/>
<path d="M0 0 C1.32 0.99 2.64 1.98 4 3 C3.01 5.64 2.02 8.28 1 11 C0.34 11 -0.32 11 -1 11 C-2.60080151 6.99799622 -1.29279692 3.95443764 0 0 Z " fill="#110E0F" transform="translate(302,35)"/>
<path d="M0 0 C2 0.9375 2 0.9375 4 3 C4.36475845 6.02534949 4.22893297 8.96663814 4 12 C2.02 12.99 2.02 12.99 0 14 C-1 11 -1 11 0 8.125 C1.05515432 4.82764276 0.9597464 3.26313775 0 0 Z " fill="#1E1A1B" transform="translate(59,7)"/>
<path d="M0 0 C5.33859501 2.91196091 8.221706 6.08745563 10 12 C9.75 15.5 9.75 15.5 9 18 C8.34 18 7.68 18 7 18 C7.061875 16.96875 7.12375 15.9375 7.1875 14.875 C6.98431852 10.67591604 6.24046074 8.52072403 4 5 C2.69855198 3.95884159 1.37202131 2.94622159 0 2 C0 1.34 0 0.68 0 0 Z " fill="#070405" transform="translate(103,41)"/>
<path d="M0 0 C-0.33 1.32 -0.66 2.64 -1 4 C-1.99 4 -2.98 4 -4 4 C-4.33 4.66 -4.66 5.32 -5 6 C-5.66 6 -6.32 6 -7 6 C-7.66 7.65 -8.32 9.3 -9 11 C-9.33 10.34 -9.66 9.68 -10 9 C-6.17021277 0 -6.17021277 0 0 0 Z " fill="#0E0B0B" transform="translate(293,36)"/>
<path d="M0 0 C0 0.99 0 1.98 0 3 C0.99 3.33 1.98 3.66 3 4 C3 5.98 3 7.96 3 10 C2.34 10 1.68 10 1 10 C0.67 8.68 0.34 7.36 0 6 C-2.31 6 -4.62 6 -7 6 C-7 5.34 -7 4.68 -7 4 C-5.824375 3.566875 -5.824375 3.566875 -4.625 3.125 C-1.90328368 2.15087746 -1.90328368 2.15087746 0 0 Z " fill="#050303" transform="translate(179,55)"/>
<path d="M0 0 C0.66 0 1.32 0 2 0 C2.80967438 2.91482778 3.21845993 4.46113217 2.0625 7.3125 C1.5365625 8.1478125 1.5365625 8.1478125 1 9 C0.34 9 -0.32 9 -1 9 C-1 9.66 -1 10.32 -1 11 C-2.32 11.33 -3.64 11.66 -5 12 C-5 11.34 -5 10.68 -5 10 C-4.01 9.1028125 -4.01 9.1028125 -3 8.1875 C-0.73140621 6.16141921 -0.73140621 6.16141921 -0.8125 3.3125 C-0.874375 2.549375 -0.93625 1.78625 -1 1 C-0.67 0.67 -0.34 0.34 0 0 Z " fill="#121011" transform="translate(262,36)"/>
<path d="M0 0 C0.99 0 1.98 0 3 0 C3 2.97 3 5.94 3 9 C1.68 9 0.36 9 -1 9 C-1.09765625 2.84765625 -1.09765625 2.84765625 -1 1 C-0.67 0.67 -0.34 0.34 0 0 Z " fill="#030303" transform="translate(312,70)"/>
<path d="M0 0 C2.9719385 1.12451727 5.33440687 2.22293791 8 4 C6.768606 6.46278801 5.21935077 7.42497687 3 9 C2.01 6.03 1.02 3.06 0 0 Z " fill="#1A1617" transform="translate(78,35)"/>
<path d="M0 0 C0 2 0 4 0 6 C2.97 6.495 2.97 6.495 6 7 C5.34 7.66 4.68 8.32 4 9 C1.5 8.875 1.5 8.875 -1 8 C-2.375 6.125 -2.375 6.125 -3 4 C-2.67 3.01 -2.34 2.02 -2 1 C-1.34 0.67 -0.68 0.34 0 0 Z " fill="#020102" transform="translate(92,56)"/>
<path d="M0 0 C0.33 0.66 0.66 1.32 1 2 C1.66 2 2.32 2 3 2 C5.21538462 9.38461538 5.21538462 9.38461538 4.125 12.5 C3.75375 12.995 3.3825 13.49 3 14 C2 11 2 11 2.125 8.5625 C1.97373662 5.46160076 1.02762756 4.281081 -1 2 C-0.67 1.34 -0.34 0.68 0 0 Z " fill="#0E0B0C" transform="translate(56,4)"/>
<path d="M0 0 C2.375 0.1875 2.375 0.1875 5 1 C6.3125 3.5625 6.3125 3.5625 7 6 C5.68 6.33 4.36 6.66 3 7 C0 2.25 0 2.25 0 0 Z " fill="#141213" transform="translate(318,41)"/>
<path d="M0 0 C1.4606285 2.64738916 2 3.89448334 2 7 C0.1875 8.0625 0.1875 8.0625 -2 9 C-2.99 8.67 -3.98 8.34 -5 8 C-4.0409375 7.13375 -4.0409375 7.13375 -3.0625 6.25 C-1.01776132 4.01937599 -0.41794801 2.92563609 0 0 Z " fill="#161314" transform="translate(81,54)"/>
<path d="M0 0 C-0.66 1.98 -1.32 3.96 -2 6 C-2.99 6 -3.98 6 -5 6 C-5.33 5.01 -5.66 4.02 -6 3 C-2.25 0 -2.25 0 0 0 Z " fill="#1B191A" transform="translate(71,35)"/>
<path d="M0 0 C2.0625 0.4375 2.0625 0.4375 4 1 C2.625 3.5 2.625 3.5 1 6 C0.34 6 -0.32 6 -1 6 C-1.042721 4.33388095 -1.04063832 2.66617115 -1 1 C-0.67 0.67 -0.34 0.34 0 0 Z " fill="#1A1819" transform="translate(99,33)"/>
<path d="M0 0 C0.66 0 1.32 0 2 0 C1.125 4.75 1.125 4.75 0 7 C-0.99 6.67 -1.98 6.34 -3 6 C-1.125 1.125 -1.125 1.125 0 0 Z " fill="#231F20" transform="translate(179,14)"/>
<path d="M0 0 C0.33 0 0.66 0 1 0 C1.33 3.63 1.66 7.26 2 11 C-0.14208427 7.7868736 -0.59687808 5.78934603 -1 2 C-0.67 1.34 -0.34 0.68 0 0 Z " fill="#120E0F" transform="translate(269,47)"/>
<path d="M0 0 C1.32 0.33 2.64 0.66 4 1 C3.67 3.31 3.34 5.62 3 8 C2.34 7.34 1.68 6.68 1 6 C1.375 3.875 1.375 3.875 2 2 C1.34 2 0.68 2 0 2 C0 1.34 0 0.68 0 0 Z " fill="#030202" transform="translate(317,31)"/>
</svg>
